<svg version="1.1" xmlns="http://www.w3.org/2000/svg" viewBox="148.68 122.75 726.62 748.32">
<g id="#0c96fbff">
<path fill="#0c96fb" opacity="1.00" d=" M 325.36 123.46 C 445.54 122.06 565.78 123.23 685.99 122.89 C 746.62 122.63 805.97 153.68 840.88 203.13 C 863.24 233.94 875.62 271.90 875.29 309.99 C 875.09 435.99 875.53 561.99 875.08 687.97 C 871.88 777.66 797.87 857.80 709.12 869.36 C 694.85 871.55 680.38 870.94 666.00 871.03 C 558.33 871.02 450.66 871.04 343.00 871.03 C 287.75 871.91 233.47 846.13 197.22 804.80 C 166.23 770.03 148.11 723.68 148.70 676.99 C 148.76 553.00 148.58 429.01 148.79 305.02 C 150.02 237.06 193.37 173.56 253.59 143.46 C 275.85 132.07 300.45 125.44 325.36 123.46 M 447.04 249.93 L 447.00 251.03 C 444.99 251.00 442.99 250.99 441.00 250.96 L 441.01 252.03 C 439.67 252.01 438.33 251.98 437.00 251.96 L 437.01 253.00 C 436.25 253.00 434.75 253.00 434.00 253.00 L 434.00 254.00 C 433.25 254.00 431.75 254.00 431.00 254.00 L 431.00 255.00 C 430.25 255.00 428.75 255.00 428.00 255.00 L 428.00 256.04 C 427.25 256.02 425.75 255.98 425.01 255.95 C 425.35 258.13 420.94 257.03 421.00 259.00 C 420.50 259.00 419.51 259.00 419.02 259.00 C 418.41 260.80 415.54 261.26 414.03 262.50 C 402.92 269.24 393.57 278.96 386.60 289.91 C 384.83 292.05 384.05 295.62 381.98 297.02 C 381.99 297.77 382.01 299.26 382.02 300.00 L 381.00 300.00 C 381.00 300.50 381.00 301.50 381.01 302.01 L 380.00 302.00 C 380.00 302.75 380.00 304.25 380.00 305.01 L 379.00 305.00 C 379.00 305.50 379.00 306.51 379.00 307.01 L 377.97 307.00 C 377.99 308.33 378.01 309.67 378.03 311.01 L 377.00 311.00 C 377.00 311.75 377.00 313.26 377.00 314.01 L 375.98 314.00 C 376.00 316.00 376.00 318.00 376.02 320.01 L 374.96 320.00 C 374.98 320.76 375.01 322.28 375.02 323.04 C 374.51 323.02 373.50 322.97 373.00 322.94 L 373.00 324.02 C 370.33 324.01 367.66 324.00 365.00 323.94 L 365.02 325.06 C 363.67 325.01 362.33 324.96 361.00 324.91 L 361.01 326.05 C 360.26 326.02 358.75 325.95 358.00 325.92 L 358.02 327.00 C 357.51 327.00 356.50 327.00 356.00 327.00 L 356.01 328.01 C 355.25 328.01 353.75 328.00 353.00 327.99 L 353.01 329.00 C 352.51 329.00 351.50 329.00 351.00 329.00 L 351.01 330.00 C 350.50 330.00 349.50 330.00 349.00 330.00 L 349.00 331.00 C 348.51 331.00 347.51 331.00 347.02 331.00 C 338.27 337.23 328.41 344.14 322.59 353.91 C 320.84 356.04 320.06 359.65 318.00 361.02 C 318.00 361.52 318.00 362.51 318.00 363.01 L 317.00 363.00 C 317.00 363.50 317.00 364.51 317.00 365.01 L 315.98 365.00 C 315.99 365.75 316.01 367.25 316.02 368.00 L 315.00 368.00 C 315.00 368.75 315.00 370.25 315.00 371.01 L 314.00 371.00 C 314.00 371.75 314.00 373.26 314.00 374.01 L 312.98 374.00 C 312.99 375.33 313.00 376.67 313.02 378.01 L 311.98 378.00 C 312.00 380.66 312.00 383.33 312.01 386.00 L 311.00 386.00 C 311.00 391.00 311.00 396.00 311.00 401.00 L 312.00 401.00 C 312.00 403.66 312.00 406.33 312.00 409.00 C 311.51 409.00 310.51 409.00 310.02 409.00 C 309.40 410.79 306.54 411.26 305.03 412.50 C 293.85 418.41 285.96 429.29 279.00 439.02 C 279.00 439.51 279.00 440.50 279.00 440.99 C 277.10 441.71 277.04 445.53 274.97 446.02 C 274.98 446.76 275.02 448.26 275.03 449.00 L 274.00 449.00 C 274.00 449.50 274.00 450.50 274.00 451.01 L 273.00 451.00 C 273.00 451.75 273.00 453.25 273.00 454.01 L 272.00 454.00 C 272.00 454.75 272.00 456.26 272.00 457.01 L 271.00 457.00 C 271.00 457.50 271.00 458.51 271.00 459.01 L 269.96 459.00 C 269.98 460.33 270.01 461.67 270.03 463.01 L 268.99 463.00 C 268.99 464.33 269.00 465.67 269.01 467.01 L 267.97 467.00 C 267.99 469.00 268.00 471.00 268.02 473.01 L 267.00 473.00 C 267.00 474.99 267.00 476.99 267.00 479.00 L 265.95 479.02 C 266.05 488.00 265.99 496.98 265.99 505.96 L 267.00 506.00 C 267.00 508.33 267.00 510.66 267.00 513.00 L 268.01 513.00 C 268.00 514.99 268.00 516.99 267.99 519.00 L 269.00 518.99 C 269.00 520.32 269.00 521.66 269.00 523.00 L 270.00 523.00 C 270.00 523.75 270.00 525.25 270.00 526.00 L 271.00 526.00 C 271.00 526.75 271.00 528.25 271.00 529.00 L 272.00 529.00 C 272.00 529.75 272.00 531.25 272.00 532.00 L 273.00 532.00 C 273.00 532.75 273.00 534.25 273.00 535.00 C 275.12 534.67 274.06 539.05 276.02 539.00 C 276.01 539.75 276.00 541.25 275.99 542.00 L 277.03 542.00 C 277.01 542.49 276.98 543.48 276.96 543.97 C 278.79 544.57 279.26 547.44 280.50 548.97 C 285.58 556.49 290.48 564.99 298.00 570.13 C 298.00 572.09 298.00 574.04 298.00 576.01 L 297.00 576.00 C 297.00 577.99 297.00 579.99 297.00 582.00 L 295.99 582.04 C 296.01 589.01 296.02 595.99 295.98 602.97 L 297.00 603.00 C 297.00 604.99 297.00 606.99 297.00 609.00 L 298.00 609.00 C 298.00 610.32 298.00 611.66 298.00 613.00 L 299.00 613.00 C 299.00 614.32 299.00 615.66 299.00 617.00 L 300.00 617.00 C 300.00 617.75 300.00 619.25 300.00 620.00 L 301.00 620.00 C 301.00 620.75 301.00 622.25 301.00 623.00 C 303.12 622.68 302.06 627.04 304.02 627.00 C 304.01 627.75 303.99 629.24 303.99 629.98 C 305.79 630.58 306.26 633.44 307.50 634.96 C 314.48 646.37 323.99 657.86 336.33 663.04 L 335.59 664.17 C 336.22 664.09 337.48 663.93 338.11 663.85 L 337.93 665.02 C 338.47 665.00 339.55 664.95 340.09 664.92 L 339.94 666.02 C 340.48 666.00 341.56 665.94 342.10 665.92 L 341.93 667.05 C 342.44 667.01 343.46 666.94 343.97 666.90 C 345.43 669.40 350.26 669.51 353.16 670.16 L 352.88 671.02 C 354.28 670.99 355.68 670.97 357.09 670.96 L 356.96 671.95 C 362.92 673.28 369.28 672.21 375.12 673.99 C 374.24 678.49 375.82 682.63 376.05 687.00 L 377.00 687.00 C 377.00 688.32 377.00 689.66 377.00 691.00 L 378.00 690.99 C 378.00 692.32 378.00 693.66 378.00 695.00 L 379.01 695.00 C 379.01 695.75 379.00 697.25 378.99 698.00 L 380.00 698.00 C 380.00 698.50 380.00 699.50 380.00 700.00 L 381.00 700.00 C 381.00 700.50 381.00 701.50 381.00 702.00 L 382.00 702.00 C 382.00 702.50 382.00 703.50 382.00 704.00 L 383.00 704.00 C 383.00 704.50 383.00 705.49 383.00 705.99 L 384.00 705.99 C 384.00 706.49 384.00 707.48 384.00 707.98 C 391.18 719.31 401.88 729.57 413.02 737.00 C 413.52 737.00 414.51 737.00 415.00 737.00 L 415.00 738.00 C 415.50 738.00 416.50 738.00 417.00 738.00 L 417.00 739.00 C 417.50 739.00 418.50 739.00 419.00 739.00 L 419.00 740.00 C 419.75 740.00 421.25 740.00 422.00 740.00 C 422.47 740.87 423.36 741.50 424.67 741.89 C 425.25 741.92 426.42 741.98 427.00 742.01 L 427.00 743.00 C 427.75 743.00 429.25 743.00 430.00 743.00 L 430.00 744.00 C 431.66 743.99 433.33 743.99 435.00 744.00 L 435.00 745.00 C 437.00 744.99 439.00 744.99 441.00 745.00 L 441.00 746.00 C 448.33 746.00 455.67 745.99 463.00 746.00 L 463.00 745.00 C 464.99 744.99 466.99 744.99 469.00 745.00 L 469.00 744.00 C 470.33 743.99 471.66 743.99 473.00 744.00 L 473.00 743.00 C 473.75 743.00 475.25 743.00 476.00 743.00 L 476.00 742.01 C 476.58 741.98 477.74 741.92 478.32 741.89 C 479.62 741.50 480.51 740.87 481.00 740.00 C 481.75 740.00 483.23 740.00 483.97 740.00 C 484.61 738.20 487.44 737.72 488.97 736.50 C 498.25 731.43 505.75 722.79 511.99 715.00 C 518.66 723.66 527.90 732.60 537.01 738.00 C 537.50 738.00 538.50 738.00 539.00 738.00 L 539.00 739.00 C 539.50 739.00 540.50 739.00 541.00 739.00 L 541.00 740.00 C 541.50 740.00 542.50 740.00 543.00 740.00 C 543.47 740.87 544.37 741.50 545.68 741.89 C 546.26 741.92 547.42 741.98 548.00 742.01 L 548.00 743.00 C 548.75 743.00 550.25 743.00 551.00 743.00 L 551.00 744.00 C 552.33 743.99 553.66 743.99 555.00 744.00 L 555.00 744.99 C 564.26 745.74 573.53 746.35 582.96 746.00 L 583.00 745.00 C 585.33 744.99 587.66 744.99 590.00 745.00 L 589.99 744.00 C 591.32 743.99 592.66 743.99 594.00 744.00 L 594.00 743.00 C 594.75 743.00 596.25 743.00 597.00 743.00 L 597.00 742.00 C 597.75 742.00 599.25 742.00 600.00 742.00 L 600.00 741.00 C 600.75 741.00 602.25 741.00 603.00 741.00 C 602.68 738.88 607.03 739.93 607.00 738.00 C 607.50 738.00 608.50 738.00 609.00 738.00 C 619.90 731.27 631.75 721.90 638.50 709.96 C 639.57 708.37 640.29 706.15 641.66 704.99 C 642.56 703.83 642.24 700.86 644.03 701.00 C 644.01 700.25 643.99 698.75 643.97 697.99 L 645.00 698.00 C 645.00 697.25 645.00 695.75 645.00 695.00 L 646.00 695.00 C 645.99 693.66 645.99 692.32 646.00 691.00 L 647.00 691.00 C 647.00 690.25 647.00 688.75 647.00 688.00 L 648.00 688.00 C 647.99 686.66 647.99 685.32 648.00 683.99 L 649.01 684.00 C 649.60 680.48 647.51 675.76 650.29 673.09 C 654.18 672.77 658.09 673.08 662.00 673.00 L 662.00 672.00 C 663.66 671.99 665.32 671.99 667.00 672.00 L 667.00 671.00 C 668.32 670.99 669.66 670.99 671.00 671.00 L 671.00 670.00 C 671.75 670.00 673.25 670.00 674.00 670.00 L 674.00 669.00 C 674.75 669.00 676.25 669.00 677.00 669.00 L 677.00 668.00 C 677.75 668.00 679.25 668.00 680.00 668.00 L 680.00 667.00 C 680.50 667.00 681.50 667.00 682.00 667.00 L 682.00 665.99 C 682.50 665.99 683.50 665.99 684.00 666.00 L 684.00 665.00 C 684.50 665.00 685.50 665.00 686.00 665.00 L 686.00 664.00 C 686.49 664.00 687.48 664.00 687.98 664.00 C 698.09 657.81 707.73 647.62 715.12 639.17 C 715.06 638.61 714.95 637.50 714.89 636.94 L 716.16 637.06 C 715.60 635.67 716.09 634.55 717.62 633.68 L 718.21 634.65 C 718.12 633.95 717.95 632.55 717.87 631.85 L 719.12 632.15 C 719.06 631.58 718.95 630.46 718.89 629.89 L 720.10 630.11 C 720.05 629.56 719.95 628.45 719.90 627.90 L 721.07 628.14 C 721.03 627.34 720.96 625.73 720.92 624.92 L 722.05 625.07 C 722.02 624.54 721.94 623.47 721.91 622.94 C 725.48 623.15 725.07 619.09 723.69 616.98 L 725.03 617.09 C 724.99 615.68 724.96 614.29 724.95 612.90 L 726.01 613.06 C 725.98 611.66 725.97 610.26 725.97 608.87 L 727.05 609.09 C 727.00 606.69 726.98 604.28 726.97 601.88 L 728.04 602.07 C 727.97 595.39 727.98 588.71 728.03 582.03 L 727.02 582.00 C 727.26 577.97 725.30 574.28 725.90 570.20 C 727.05 569.26 728.29 568.44 729.47 567.53 C 734.35 561.51 739.70 555.78 743.46 548.93 C 745.24 546.87 746.11 543.17 748.00 541.99 C 748.00 541.49 748.00 540.50 748.00 540.00 L 749.01 540.00 C 749.01 539.25 748.99 537.75 748.98 537.00 L 750.00 537.00 C 750.00 536.50 750.00 535.50 750.00 535.00 L 751.00 535.00 C 751.00 534.25 751.00 532.75 750.99 532.00 L 752.00 532.00 C 752.00 531.25 752.00 529.75 752.00 529.00 L 753.00 529.00 C 753.00 528.25 753.00 526.75 753.00 526.00 L 754.00 526.00 C 754.00 525.25 754.00 523.75 754.00 522.99 L 755.00 523.00 C 754.99 521.33 754.99 519.66 755.00 518.00 L 755.96 518.00 C 755.87 513.20 757.80 508.76 756.99 503.87 L 758.00 504.06 C 758.01 496.05 757.96 488.04 758.03 480.04 L 757.00 480.00 C 756.99 477.66 756.99 475.33 757.00 473.00 L 756.00 473.00 C 755.99 471.33 755.99 469.66 756.00 468.00 L 755.00 468.00 C 754.99 466.66 754.99 465.33 755.00 464.00 L 754.00 464.00 C 753.99 462.66 753.99 461.33 754.00 460.00 L 753.00 460.00 C 753.00 459.25 753.00 457.75 753.00 457.00 L 752.00 457.00 C 752.00 456.25 752.00 454.75 752.00 454.00 L 750.98 454.00 C 750.99 453.25 751.01 451.75 751.01 451.00 C 748.86 451.33 749.94 446.92 747.97 447.00 C 747.99 446.25 748.01 444.76 748.02 444.02 C 746.22 443.39 745.73 440.56 744.50 439.04 C 738.66 429.00 730.85 419.97 721.09 413.59 C 719.55 412.28 716.62 411.84 715.98 410.00 C 715.48 410.00 714.49 410.00 713.99 410.00 L 713.99 409.00 C 713.49 409.00 712.50 409.00 712.00 409.00 C 711.99 407.00 711.99 405.00 712.00 403.00 L 713.04 402.96 C 712.96 396.65 712.99 390.34 713.01 384.04 L 711.99 384.00 C 711.99 381.99 711.99 380.00 712.01 378.00 L 711.03 378.01 C 710.66 374.72 710.35 370.08 708.00 368.00 C 708.00 367.25 708.00 365.75 708.00 365.00 L 707.00 365.01 C 707.00 364.51 707.00 363.50 707.00 363.00 L 706.00 363.01 C 706.00 362.50 706.00 361.50 706.00 361.00 L 705.00 361.00 C 705.00 360.50 705.00 359.50 705.00 359.01 C 698.84 348.10 687.70 337.71 676.98 331.00 C 676.49 331.00 675.49 331.00 674.99 331.00 L 675.00 330.00 C 674.50 330.00 673.50 330.00 673.00 330.00 L 673.00 329.00 C 672.50 329.00 671.50 329.00 670.99 329.00 L 671.00 328.00 C 670.25 328.00 668.75 328.00 668.00 328.00 L 668.00 327.00 C 667.50 327.00 666.49 327.00 665.99 327.01 L 666.00 325.93 C 665.25 325.96 663.74 326.02 662.99 326.05 L 663.00 324.93 C 661.33 324.97 659.66 325.01 658.00 325.05 L 658.00 324.11 C 655.99 324.10 654.00 323.93 652.08 323.36 L 651.80 324.08 C 651.10 323.74 649.68 323.07 648.98 322.74 C 648.98 321.15 648.98 319.57 649.01 318.00 L 647.99 318.01 C 647.99 316.33 647.99 314.66 648.01 313.00 L 646.96 313.01 C 646.98 311.67 647.01 310.33 647.04 309.00 L 645.97 309.00 C 645.99 308.25 646.01 306.75 646.03 306.00 L 644.96 306.00 C 644.98 305.25 645.03 303.75 645.06 303.00 L 644.00 303.01 C 644.00 302.51 644.00 301.50 644.00 301.00 L 643.02 301.00 C 642.99 300.41 642.94 299.23 642.91 298.65 C 641.72 297.64 641.30 295.63 640.00 294.99 C 640.00 294.49 640.00 293.50 640.00 293.00 L 639.00 293.00 C 639.00 292.51 639.00 291.51 639.00 291.02 C 631.19 279.71 621.30 268.64 608.96 261.50 C 607.37 260.41 605.13 259.70 603.99 258.33 C 602.82 257.41 599.81 257.75 600.00 255.92 C 599.25 255.96 597.75 256.02 597.00 256.05 L 597.00 255.00 C 596.25 255.00 594.75 255.00 593.99 255.00 L 594.00 254.00 C 593.25 254.00 591.75 254.00 590.99 254.00 L 591.00 253.00 C 590.25 253.00 588.74 253.00 587.99 253.00 L 588.00 251.99 C 586.32 252.00 584.65 252.00 582.99 252.01 L 583.00 251.00 C 581.33 251.00 579.66 251.00 578.00 251.00 L 577.96 249.94 C 570.98 250.03 564.01 250.06 557.04 249.90 L 557.00 251.02 C 555.32 251.01 553.66 250.99 552.00 250.97 L 552.01 252.01 C 550.66 252.00 549.33 252.00 548.00 251.99 L 548.01 253.00 C 547.25 253.00 545.75 253.00 545.00 253.00 L 545.00 254.00 C 544.25 254.00 542.75 254.00 542.00 254.00 L 542.00 255.06 C 541.25 255.02 539.75 254.96 539.00 254.92 L 539.01 256.04 C 538.51 256.02 537.50 255.97 537.00 255.94 L 537.01 257.04 C 536.51 257.02 535.52 256.97 535.02 256.95 C 527.01 263.07 517.62 269.81 512.65 279.36 C 506.78 270.96 499.09 263.53 490.98 258.00 C 490.49 258.00 489.49 258.00 489.00 258.00 L 489.00 257.00 C 488.50 257.00 487.50 257.00 487.00 257.00 C 487.04 255.03 482.62 256.14 483.00 253.95 C 482.25 253.97 480.75 254.02 480.00 254.04 L 480.00 252.98 C 479.25 252.99 477.74 253.01 476.99 253.03 L 477.00 251.96 C 475.66 251.98 474.32 252.01 472.99 252.03 L 473.00 250.95 C 471.33 250.98 469.66 251.01 468.00 251.03 L 467.96 249.93 C 460.99 250.04 454.01 250.05 447.04 249.93 Z"/>
<path fill="#0c96fb" opacity="1.00" d=" M 443.99 273.99 C 453.30 273.40 462.93 271.54 471.99 275.24 L 472.01 276.01 C 472.76 276.01 474.28 276.00 475.03 275.99 L 474.99 277.01 C 475.50 277.00 476.51 276.99 477.02 276.98 L 476.99 278.02 C 477.49 278.01 478.48 277.99 478.97 277.98 C 482.81 281.59 489.40 284.61 490.99 289.75 C 492.01 290.57 493.70 291.10 492.96 292.73 C 494.25 293.57 495.83 294.30 494.86 296.09 L 496.13 295.92 C 496.05 296.74 495.88 298.37 495.79 299.19 L 497.12 298.88 C 497.06 299.45 496.92 300.58 496.86 301.15 L 498.07 300.87 C 498.01 302.29 497.95 303.70 497.90 305.13 L 499.22 304.87 C 499.59 307.13 496.46 311.51 499.85 312.30 C 500.22 434.19 499.85 556.10 500.03 678.00 C 499.56 680.92 499.25 683.96 498.18 686.74 C 498.13 687.31 498.01 688.43 497.96 689.00 L 496.98 689.01 C 496.99 689.76 497.01 691.26 497.02 692.01 L 495.98 691.99 C 495.99 692.75 496.01 694.27 496.02 695.03 L 495.00 694.99 C 495.00 695.49 495.01 696.48 495.01 696.98 C 489.48 706.74 479.82 715.13 469.99 720.01 C 469.24 720.00 467.74 720.00 466.99 719.99 L 467.04 721.03 C 465.68 721.00 464.33 720.97 462.99 720.96 L 463.04 721.97 C 455.40 723.87 447.64 722.72 439.97 721.98 L 440.01 721.00 C 438.65 720.99 437.31 720.99 435.96 721.00 L 436.01 719.99 C 435.26 720.00 433.75 720.00 432.99 720.01 C 432.32 717.87 427.50 718.30 426.99 716.00 C 426.50 716.00 425.52 716.01 425.03 716.01 C 416.76 711.00 408.92 703.67 404.16 694.99 C 403.66 693.65 403.15 692.33 402.65 691.01 C 401.92 690.45 401.36 689.61 401.00 688.49 C 401.00 687.33 401.00 686.18 401.00 685.03 L 399.98 684.99 C 399.99 683.65 400.01 682.32 400.04 680.99 L 399.02 681.02 C 398.77 677.00 397.36 673.15 398.00 669.03 C 399.65 668.54 401.31 668.09 402.99 667.66 L 403.01 666.99 C 403.50 666.99 404.48 667.00 404.97 667.00 L 405.01 665.99 C 405.51 665.99 406.51 666.00 407.01 666.00 L 406.97 664.98 C 407.47 664.99 408.48 665.00 408.98 665.01 C 414.72 659.95 423.40 656.49 427.40 649.08 C 429.94 646.10 428.72 642.09 429.00 638.52 C 427.45 636.16 425.79 633.71 423.07 632.62 C 422.21 632.03 421.29 631.52 420.32 631.08 C 418.21 631.01 416.10 631.00 414.00 630.96 C 407.50 635.30 400.71 643.76 392.98 647.02 C 392.24 647.01 390.74 646.99 389.99 646.98 L 390.03 648.01 C 389.27 648.01 387.75 647.99 386.98 647.99 L 387.04 648.99 C 378.99 650.17 371.01 650.20 362.97 648.98 L 363.00 647.96 C 361.66 647.98 360.31 648.00 358.97 648.02 L 359.01 646.98 C 358.26 646.99 356.77 647.01 356.02 647.02 C 355.50 645.50 353.06 645.05 351.48 644.89 C 350.37 644.08 349.23 643.33 348.10 642.57 C 339.90 638.04 332.86 631.45 328.51 623.06 C 327.12 621.61 326.65 618.87 324.99 617.99 C 325.00 617.49 325.00 616.49 325.00 615.99 L 323.99 616.01 C 324.00 615.26 324.01 613.75 324.01 612.99 L 322.99 613.02 C 323.00 612.27 323.00 610.76 323.01 610.01 L 322.24 610.00 C 319.08 600.95 320.16 591.32 320.00 581.89 L 320.89 582.06 C 321.02 579.65 321.47 577.29 322.13 574.98 C 323.42 574.35 323.94 572.04 324.09 570.50 C 325.00 569.22 325.84 567.89 326.72 566.60 L 326.83 567.61 C 326.77 565.89 327.70 564.59 328.88 563.48 C 331.21 560.17 335.24 554.15 339.55 554.25 L 338.73 553.60 C 339.69 551.95 340.96 551.53 342.56 552.33 L 341.71 551.60 C 342.57 550.08 343.68 549.60 345.05 550.17 L 344.95 548.91 C 345.48 548.94 346.54 549.01 347.07 549.05 L 346.91 547.88 C 347.80 547.95 349.57 548.08 350.45 548.15 L 349.65 547.26 C 357.64 543.81 366.41 546.11 374.52 543.91 C 376.99 541.93 378.87 538.91 381.02 536.98 C 380.99 534.31 381.00 531.65 381.01 528.99 L 379.99 529.02 C 379.99 528.52 380.00 527.52 380.01 527.02 C 378.63 525.48 376.69 523.29 374.97 522.06 C 368.20 520.31 361.06 521.22 354.07 520.96 L 353.99 522.02 C 351.98 522.00 349.98 521.98 347.99 521.97 L 348.03 523.02 C 347.27 523.01 345.75 522.99 344.99 522.99 L 345.04 524.01 C 344.28 524.00 342.75 523.99 341.99 523.99 L 342.02 525.02 C 341.27 525.01 339.75 524.99 338.99 524.98 L 339.03 526.01 C 338.52 526.01 337.50 525.99 336.99 525.99 L 337.03 527.01 C 336.52 527.01 335.50 527.00 334.99 527.00 L 335.03 528.01 C 334.52 528.01 333.52 528.00 333.01 528.00 C 325.27 533.35 316.25 539.52 310.73 548.03 C 310.15 548.01 308.98 547.98 308.40 547.96 C 305.53 544.07 302.85 539.56 299.99 535.98 C 299.99 535.49 300.00 534.51 300.00 534.01 C 297.67 533.51 298.14 528.66 295.98 528.00 C 295.99 527.25 296.01 525.74 296.02 524.99 L 294.96 525.03 C 294.98 524.27 295.02 522.75 295.05 521.99 L 293.98 522.03 C 293.99 521.27 294.01 519.75 294.02 518.99 L 293.00 519.03 C 293.00 518.27 293.00 516.75 293.00 515.99 L 292.00 516.05 C 292.00 514.69 292.00 513.34 292.01 511.99 L 291.01 512.03 C 289.61 499.13 289.59 485.90 291.01 472.99 L 292.00 473.00 C 292.00 471.65 292.00 470.31 292.00 468.97 L 293.01 469.02 C 292.99 468.26 292.95 466.75 292.93 465.99 L 294.01 466.01 C 294.01 465.26 294.00 463.76 293.99 463.01 L 295.00 462.98 C 295.00 462.48 294.99 461.48 294.99 460.98 L 296.02 461.01 C 296.01 460.26 295.99 458.76 295.98 458.01 C 297.96 458.07 296.86 453.67 299.00 454.00 C 299.00 453.50 298.99 452.52 298.99 452.02 C 304.41 443.23 312.34 435.43 320.57 428.85 C 326.45 437.53 334.64 444.43 343.03 450.00 C 343.53 450.00 344.52 450.00 345.02 449.99 L 344.99 451.00 C 345.50 451.00 346.51 451.00 347.02 450.99 L 346.99 452.00 C 347.74 452.00 349.24 452.00 349.99 451.99 C 350.48 452.88 351.38 453.52 352.67 453.91 C 353.78 453.94 354.89 453.97 356.01 454.01 L 356.00 455.00 C 356.75 455.00 358.24 455.00 358.99 455.00 L 359.04 456.01 C 361.69 455.99 364.35 456.00 367.00 456.00 L 367.00 457.00 C 372.99 457.00 378.99 457.00 384.98 457.00 L 385.01 455.99 C 389.59 456.61 392.35 451.49 395.00 448.98 C 395.01 445.99 394.99 443.00 395.01 440.02 C 393.06 438.53 391.74 435.66 389.54 434.07 C 380.89 431.86 371.66 433.89 362.97 431.97 L 363.01 430.99 C 362.26 430.99 360.76 431.01 360.00 431.01 C 360.08 429.02 355.68 430.12 356.00 427.99 C 355.50 427.99 354.52 428.01 354.02 428.01 C 348.62 424.73 343.27 419.39 339.99 413.98 C 340.00 413.49 340.00 412.50 340.01 412.00 C 337.88 412.29 338.96 407.94 336.99 407.99 C 337.00 407.24 337.00 405.74 337.01 404.99 L 336.01 405.03 C 334.35 396.48 334.77 387.56 336.04 378.99 C 337.78 378.73 337.36 375.45 338.21 374.00 L 339.00 373.99 C 339.00 373.49 338.99 372.48 338.99 371.97 L 340.00 372.01 C 340.00 371.51 340.00 370.52 339.99 370.02 C 344.80 361.84 353.09 355.02 361.02 349.99 C 361.76 350.00 363.26 350.00 364.01 350.01 L 363.98 348.99 C 364.74 348.99 366.25 349.01 367.01 349.01 L 366.97 347.98 C 367.73 347.99 369.25 348.01 370.00 348.01 L 369.97 347.03 C 378.51 345.50 387.49 345.51 396.03 347.03 L 395.99 348.00 C 397.33 348.00 398.66 348.00 400.00 348.00 L 400.01 349.00 C 400.51 349.00 401.52 349.00 402.03 348.99 L 401.99 350.02 C 402.75 350.01 404.27 349.99 405.03 349.98 L 404.99 351.00 C 405.49 351.00 406.48 350.99 406.98 350.99 C 413.26 355.11 419.96 360.46 424.05 367.01 C 424.02 367.51 423.96 368.50 423.93 369.00 C 426.15 368.60 424.99 373.09 427.02 373.01 C 427.01 373.76 426.99 375.26 426.98 376.01 L 428.00 375.97 C 428.00 376.73 428.00 378.25 427.99 379.01 L 429.00 378.96 C 428.99 380.64 429.00 382.31 429.00 383.99 C 430.59 385.65 432.43 389.67 435.02 391.01 C 435.77 391.01 437.28 391.00 438.03 390.99 L 437.98 392.00 C 439.65 392.00 441.32 391.99 442.99 392.00 L 443.01 390.99 C 443.63 390.99 444.87 390.98 445.50 390.98 C 448.30 389.69 450.14 386.80 452.02 384.98 C 452.01 384.23 451.99 382.72 451.99 381.97 L 453.00 382.01 C 453.00 380.33 453.02 378.66 453.04 376.99 L 452.00 377.03 C 451.99 375.35 452.00 373.67 452.01 372.00 L 450.98 372.01 C 450.99 371.25 451.00 369.74 451.01 368.99 L 449.99 369.03 C 450.00 368.27 450.00 366.75 450.01 365.99 L 448.97 366.03 C 448.99 365.27 449.01 363.75 449.03 362.99 L 447.99 363.02 C 448.00 362.52 448.01 361.51 448.01 361.01 C 445.74 361.40 447.09 356.82 444.97 356.96 C 445.65 355.20 444.08 354.56 442.92 353.74 C 439.36 346.47 430.73 338.44 423.26 334.06 C 422.42 332.82 421.68 331.41 419.92 332.00 L 420.14 330.89 C 419.58 330.94 418.45 331.06 417.89 331.12 L 418.12 329.88 C 417.56 329.94 416.45 330.06 415.89 330.12 L 416.12 328.88 C 415.56 328.94 414.45 329.06 413.89 329.12 L 414.13 327.90 C 413.35 327.95 411.80 328.05 411.03 328.10 C 410.45 325.99 406.94 325.94 404.96 326.00 L 405.01 325.03 C 402.57 325.20 400.27 324.56 398.00 323.76 C 398.00 323.06 398.00 321.67 398.00 320.97 L 399.01 321.01 C 399.01 320.51 399.00 319.50 399.00 318.99 L 400.01 319.00 C 400.01 318.24 399.99 316.73 399.99 315.97 L 401.02 316.01 C 401.01 315.25 400.99 313.73 400.98 312.97 L 402.01 313.01 C 402.00 312.50 401.99 311.48 401.99 310.97 L 403.02 311.01 C 403.01 310.25 402.99 308.74 402.97 307.98 L 404.00 308.01 C 404.00 307.52 403.99 306.53 403.99 306.04 C 409.90 296.34 418.31 286.93 428.03 280.99 C 428.52 281.00 429.49 281.00 429.97 281.01 C 430.38 279.55 432.47 279.20 433.48 278.11 C 433.94 278.05 434.86 277.92 435.32 277.86 C 436.64 277.50 437.53 276.88 438.01 275.98 C 438.76 275.99 440.25 275.99 441.00 275.99 L 440.98 275.01 C 441.73 275.01 443.25 274.99 444.01 274.98 L 443.99 273.99 M 426.69 478.07 C 425.71 478.52 424.79 479.04 423.93 479.62 C 420.43 480.18 420.12 484.67 417.98 486.01 C 418.00 488.34 418.00 490.66 418.01 493.00 L 419.00 493.00 C 419.00 493.63 419.01 494.89 419.01 495.52 C 420.64 497.70 423.53 499.04 425.02 501.00 C 425.77 501.00 427.26 501.00 428.00 501.00 L 428.00 502.00 C 431.00 501.99 434.00 501.99 437.00 502.00 C 440.22 503.52 444.63 507.41 445.86 510.98 C 448.00 526.07 447.33 541.92 445.98 557.01 L 445.00 557.00 C 445.00 557.75 445.00 559.25 445.00 560.00 L 444.00 560.00 C 444.00 560.50 444.00 561.49 444.01 561.99 C 440.82 566.32 437.20 571.68 432.08 574.56 C 431.23 575.81 428.13 575.31 428.00 576.97 C 420.15 578.60 412.03 577.88 404.00 577.97 L 404.00 579.01 C 403.17 579.02 401.50 579.04 400.67 579.04 C 399.62 579.88 398.52 580.67 397.45 581.48 C 396.31 583.17 395.18 584.88 394.04 586.58 C 394.02 589.05 393.99 591.52 394.00 594.00 L 395.00 594.00 C 395.00 594.49 395.00 595.48 395.00 595.98 C 396.38 597.49 398.29 599.70 400.03 600.94 C 407.53 602.92 415.48 601.45 423.19 602.18 C 424.58 602.37 427.23 603.72 426.85 601.11 C 428.56 600.96 430.28 601.01 432.00 600.93 L 432.00 600.00 C 432.75 600.00 434.25 600.00 435.00 600.00 L 435.00 599.01 C 435.58 598.98 436.74 598.92 437.32 598.89 C 438.62 598.51 439.51 597.88 440.01 597.00 C 440.50 597.00 441.50 597.00 441.99 597.00 C 450.54 592.29 459.22 583.77 464.00 574.98 C 464.00 574.49 464.00 573.50 464.00 573.00 L 465.00 573.00 C 465.00 572.50 465.00 571.50 465.00 571.01 C 465.88 570.51 466.51 569.63 466.91 568.34 C 466.94 567.22 466.97 566.11 467.01 565.00 L 468.00 565.00 C 468.00 564.25 468.00 562.75 468.00 562.00 L 469.00 562.00 C 470.42 543.24 470.65 523.73 468.98 505.00 L 468.00 505.00 C 468.00 504.25 468.00 502.75 468.00 502.00 L 467.00 502.01 C 467.00 501.26 467.00 499.75 467.00 499.00 L 466.00 499.00 C 466.00 498.51 466.00 497.51 466.00 497.02 C 462.61 491.10 456.85 484.70 450.98 481.00 C 450.48 481.00 449.50 481.00 449.00 481.01 C 448.52 480.11 447.62 479.48 446.32 479.11 C 445.74 479.08 444.58 479.02 444.01 478.99 L 443.96 478.00 C 438.20 478.02 432.45 477.96 426.69 478.07 Z"/>
<path fill="#0c96fb" opacity="1.00" d=" M 552.00 275.24 C 561.07 272.02 570.71 272.90 580.00 274.03 L 580.00 275.01 C 580.75 275.01 582.26 275.00 583.01 275.00 L 583.02 275.94 C 585.10 275.88 587.01 276.67 588.99 277.24 L 589.01 278.01 C 589.51 278.00 590.50 277.99 590.99 277.98 L 591.03 279.00 C 591.51 279.00 592.49 278.99 592.97 278.99 C 593.88 280.63 596.55 281.15 598.09 282.44 C 608.00 288.20 615.00 297.91 621.01 307.02 C 621.01 307.52 621.00 308.51 621.00 309.01 L 622.00 308.97 C 622.00 309.73 622.00 311.25 622.00 312.01 L 623.03 311.97 C 623.01 312.73 622.99 314.25 622.98 315.01 L 624.02 314.97 C 624.01 315.48 624.00 316.50 623.99 317.01 L 625.01 316.98 C 625.01 317.73 624.99 319.25 624.99 320.01 L 626.14 319.98 C 627.39 324.94 622.77 325.74 618.99 325.00 L 619.03 326.01 C 618.27 326.00 616.76 326.00 616.01 325.99 L 616.00 326.79 C 614.53 327.65 611.21 327.19 610.99 329.02 C 610.24 329.01 608.74 328.99 607.99 328.98 L 608.02 330.01 C 607.52 330.00 606.52 329.99 606.02 329.98 C 596.86 336.42 586.65 343.71 580.58 353.91 C 578.84 356.05 578.04 359.65 575.98 361.02 C 575.99 361.76 576.01 363.26 576.02 364.00 L 575.00 364.01 C 575.00 364.51 575.01 365.52 575.01 366.03 L 573.97 365.99 C 573.98 366.74 574.00 368.25 574.01 369.01 L 572.99 369.00 C 572.99 370.34 572.99 371.69 573.01 373.04 L 571.99 372.99 C 571.99 374.33 571.99 375.68 572.00 377.02 L 571.07 376.99 C 570.31 383.35 574.71 389.47 580.01 392.01 C 581.99 391.99 583.98 392.00 585.97 392.00 L 586.01 391.01 C 586.60 390.99 587.77 390.94 588.36 390.91 C 589.39 390.08 590.47 389.30 591.55 388.52 C 592.68 386.82 593.80 385.12 594.95 383.43 C 594.97 381.94 594.97 380.45 595.01 378.98 L 596.01 379.00 C 596.00 377.66 595.98 376.33 595.98 375.00 C 598.13 374.31 597.69 369.52 600.01 368.98 C 600.00 368.49 600.00 367.52 599.99 367.03 C 604.14 360.50 610.26 354.95 617.01 351.16 C 618.15 350.31 620.86 350.55 621.01 348.99 C 621.76 348.99 623.26 349.01 624.01 349.01 L 623.97 347.99 C 624.72 348.00 626.24 348.00 627.00 348.01 L 626.97 347.03 C 635.87 345.77 645.14 345.32 654.02 347.02 L 654.00 348.00 C 655.33 348.00 656.66 348.00 658.01 348.00 C 658.46 348.88 659.35 349.50 660.67 349.88 C 661.25 349.92 662.41 349.98 662.99 350.01 C 663.92 351.63 666.56 352.15 668.09 353.45 C 671.51 355.01 673.39 358.52 676.60 360.40 C 678.95 363.58 681.91 366.25 683.50 369.96 C 685.09 371.42 685.09 375.12 687.01 376.01 C 687.00 376.76 687.00 378.27 686.99 379.02 L 687.97 378.97 C 688.53 387.54 691.08 398.90 687.00 406.01 C 687.00 406.51 687.01 407.53 687.01 408.03 L 685.99 407.99 C 685.99 408.73 686.00 410.23 686.01 410.98 C 684.36 411.91 683.84 414.55 682.55 416.09 C 679.93 420.25 676.25 423.93 672.09 426.55 C 670.56 427.85 667.84 428.36 666.98 430.03 C 666.23 430.01 664.74 429.99 663.99 429.98 L 664.02 431.02 C 663.27 431.01 661.76 430.99 661.00 430.98 L 661.03 431.96 C 652.57 434.25 643.48 431.60 635.06 434.05 C 632.51 435.76 630.36 438.57 629.07 441.66 C 629.01 443.76 629.00 445.87 628.99 447.98 L 630.01 448.01 C 630.01 448.65 630.01 449.91 630.00 450.55 C 632.66 453.39 635.72 455.79 639.51 456.85 C 645.02 457.18 650.54 456.92 656.06 457.01 L 655.88 455.99 C 658.59 456.01 661.31 455.99 664.03 456.01 L 663.93 454.98 C 665.28 454.98 666.65 454.99 668.03 455.02 L 667.96 453.83 C 669.99 453.41 671.33 454.04 671.96 455.71 L 671.57 454.19 C 671.96 454.20 672.75 454.22 673.14 454.23 L 671.57 453.41 C 672.66 452.27 675.83 452.73 676.06 450.94 C 676.82 450.97 678.34 451.02 679.09 451.05 L 678.90 449.85 C 679.51 449.93 680.73 450.11 681.34 450.19 C 681.24 450.01 681.03 449.65 680.93 449.47 C 682.77 448.71 684.23 446.14 686.46 447.24 L 685.75 446.46 C 692.58 441.63 698.49 435.76 703.28 428.89 C 711.85 435.09 719.42 443.40 725.01 452.03 C 725.01 452.52 725.00 453.51 725.00 454.01 L 726.01 453.97 C 726.01 454.48 726.00 455.50 725.99 456.01 L 727.01 455.98 C 727.01 456.49 727.00 457.50 727.00 458.01 L 728.01 457.97 C 728.01 458.48 728.00 459.50 727.99 460.01 L 729.02 459.98 C 729.01 460.74 728.99 462.25 728.98 463.01 L 730.01 462.96 C 730.00 463.72 730.00 465.25 729.99 466.01 L 731.01 465.96 C 731.01 466.73 730.99 468.25 730.99 469.01 L 732.00 468.98 C 731.99 470.31 731.99 471.65 732.00 473.00 L 733.01 472.98 C 732.99 474.98 732.99 476.98 733.00 478.99 L 734.02 478.99 C 734.91 488.18 734.58 496.80 734.00 506.02 L 732.99 505.99 C 733.01 508.00 732.96 510.01 733.01 512.03 L 731.98 511.99 C 731.99 513.33 732.00 514.68 732.03 516.03 L 730.99 515.99 C 730.99 517.33 730.99 518.68 731.00 520.03 L 730.00 519.99 C 730.00 520.75 730.00 522.27 730.00 523.03 L 728.99 522.99 C 728.99 523.74 729.00 525.24 729.01 525.99 C 727.66 526.34 727.16 528.61 726.97 529.99 C 725.03 529.98 726.11 534.30 723.99 534.00 C 723.99 534.50 724.00 535.49 724.01 535.99 C 720.58 539.82 718.26 545.40 714.47 549.29 C 709.38 542.45 703.36 536.15 696.09 531.59 C 694.52 530.29 691.70 529.84 690.94 528.03 C 689.55 528.04 687.05 527.49 686.99 526.00 C 686.48 526.00 685.48 526.01 684.98 526.01 L 685.01 524.98 C 684.25 524.99 682.73 525.01 681.97 525.02 L 682.01 523.98 C 681.25 523.99 679.72 524.01 678.96 524.02 L 679.03 522.99 C 677.67 522.99 676.31 523.00 674.97 523.01 L 675.01 522.00 C 673.00 521.99 671.01 521.99 669.02 522.00 L 668.95 520.98 C 663.13 521.01 657.32 521.01 651.51 520.99 C 648.73 522.81 646.35 525.13 644.02 527.48 C 644.01 528.11 644.00 529.38 644.00 530.01 L 642.99 529.99 C 642.99 531.64 642.99 533.30 643.00 534.96 L 644.01 535.01 C 644.01 535.63 644.01 536.88 644.01 537.50 C 645.58 539.83 647.41 541.99 649.44 543.95 C 656.21 546.65 665.69 542.77 671.01 547.01 C 671.76 547.00 673.27 547.00 674.02 547.00 L 673.99 548.01 C 674.75 548.01 676.26 547.99 677.02 547.99 L 677.01 549.00 C 677.51 549.00 678.49 549.00 678.98 549.00 C 687.00 554.13 695.18 560.89 699.51 569.97 C 700.10 570.66 700.59 571.51 700.99 572.51 C 700.99 573.13 701.01 574.36 701.01 574.97 L 702.01 575.01 C 702.00 575.76 702.00 577.25 701.99 578.00 L 702.95 577.98 C 703.00 579.87 702.93 581.84 703.84 583.58 C 705.59 589.75 704.87 595.85 703.98 602.04 L 702.99 601.99 C 702.99 603.99 703.00 606.00 703.01 608.01 L 701.99 608.00 C 702.00 608.76 702.00 610.27 702.01 611.02 L 700.99 610.99 C 700.99 611.74 701.00 613.24 701.01 613.99 C 698.86 614.72 699.31 619.48 697.00 620.01 C 697.00 620.50 697.01 621.49 697.01 621.98 C 692.04 629.14 686.23 637.09 678.09 641.56 C 676.52 642.82 673.88 643.38 672.97 645.01 C 672.47 645.01 671.49 645.00 670.99 645.00 L 671.03 646.02 C 670.52 646.01 669.50 646.00 668.99 646.00 L 669.04 647.02 C 667.68 647.00 666.33 646.98 664.99 646.97 L 665.03 648.02 C 664.27 648.01 662.75 647.99 661.99 647.99 L 662.04 648.99 C 653.65 650.40 645.38 649.88 636.97 649.00 L 637.01 647.99 C 636.25 648.00 634.73 648.01 633.97 648.02 L 634.01 646.98 C 633.26 646.99 631.76 647.01 631.01 647.02 L 630.95 646.00 C 630.47 646.00 629.51 646.01 629.02 646.01 C 628.10 644.36 625.43 643.86 623.92 642.56 C 618.83 639.45 614.64 633.39 610.00 631.00 C 607.66 630.98 605.33 631.00 603.00 631.00 C 601.65 632.78 597.80 633.94 595.97 636.37 C 595.98 637.03 596.00 638.34 596.01 639.00 L 595.00 638.99 C 594.97 641.45 595.00 643.92 595.08 646.39 C 598.48 654.44 606.96 658.95 613.03 664.00 C 613.52 664.00 614.50 664.00 614.99 663.99 L 615.07 664.99 C 616.45 664.84 618.44 665.57 619.01 666.68 C 621.33 667.49 623.66 668.30 625.99 669.13 C 626.71 673.71 624.85 677.94 624.94 682.46 C 623.93 684.54 623.25 686.73 622.83 689.01 L 622.00 689.01 C 622.00 689.51 622.00 690.52 622.01 691.03 L 620.98 690.99 C 620.99 691.74 621.01 693.23 621.02 693.98 C 615.42 702.95 607.31 711.53 597.99 716.84 C 596.83 717.68 594.12 717.44 593.99 719.02 C 593.24 719.01 591.74 718.99 590.99 718.98 L 591.03 720.02 C 590.27 720.01 588.75 719.99 587.99 719.98 L 588.03 721.04 C 586.68 721.00 585.33 720.97 584.00 720.95 L 584.03 721.96 C 576.43 723.65 568.59 723.08 560.96 721.98 L 561.01 720.99 C 559.65 720.99 558.31 721.00 556.97 721.02 L 557.01 720.00 C 556.50 720.00 555.48 720.01 554.97 720.02 L 555.01 718.99 C 554.26 718.99 552.77 719.01 552.02 719.01 C 551.14 717.40 548.56 716.87 547.03 715.67 C 540.17 712.30 535.37 705.78 530.99 699.98 C 531.00 699.48 531.00 698.50 531.00 698.01 C 528.68 697.48 529.14 692.71 526.98 691.99 C 526.99 690.65 527.00 689.32 527.03 688.00 L 526.02 688.02 C 521.98 664.10 524.91 639.42 523.95 614.97 C 526.36 579.53 524.46 543.63 525.13 508.00 C 525.59 503.95 523.36 500.21 523.87 496.16 C 524.00 444.35 524.12 392.51 523.88 340.69 C 526.96 327.88 522.61 314.74 526.02 301.96 L 527.01 302.00 C 527.01 301.26 527.00 299.76 526.99 299.01 C 528.55 298.86 528.32 296.16 529.18 295.01 C 533.10 287.42 539.87 281.22 547.03 276.97 C 547.77 276.99 549.27 277.01 550.01 277.03 L 549.98 275.99 C 550.48 275.99 551.49 276.00 551.99 276.00 L 552.00 275.24 M 586.00 476.90 L 586.01 478.00 C 584.33 477.99 582.66 477.99 581.00 478.00 L 581.01 479.01 C 579.66 479.00 578.33 478.99 577.00 479.00 L 577.01 480.00 C 576.51 480.00 575.51 480.00 575.02 480.00 C 568.09 483.44 562.19 490.60 557.99 497.02 C 558.00 497.76 558.01 499.26 558.01 500.00 L 557.00 500.00 C 557.00 500.50 557.00 501.51 557.00 502.01 L 555.99 502.00 C 555.99 503.33 556.00 504.66 556.01 506.00 L 554.99 506.04 C 555.00 508.05 554.99 510.06 555.01 512.09 L 553.94 511.94 C 554.44 528.30 553.05 544.79 555.07 561.00 L 556.00 561.00 C 555.99 562.32 555.99 563.66 556.00 564.99 L 556.99 565.00 C 557.02 565.58 557.08 566.74 557.11 567.32 C 557.48 568.61 558.11 569.51 559.00 570.01 C 559.00 570.75 559.00 572.25 559.00 573.00 L 560.01 573.00 C 560.00 573.50 560.00 574.50 560.00 575.00 L 561.00 575.00 C 561.00 575.49 561.00 576.49 561.00 576.98 C 566.17 584.55 574.64 592.33 582.01 597.00 C 582.50 597.00 583.50 597.00 584.00 597.00 L 584.00 598.00 C 584.75 598.00 586.25 598.00 587.00 598.00 L 587.00 599.00 C 587.50 599.00 588.50 599.00 589.00 599.00 L 589.00 600.00 C 590.33 599.99 591.66 599.99 593.00 600.00 L 593.00 600.96 C 602.49 602.42 612.25 601.96 621.96 602.00 L 622.00 601.00 C 622.50 601.00 623.48 601.00 623.98 601.00 C 625.92 599.35 628.41 597.03 630.00 594.94 C 629.99 591.76 630.00 588.59 629.98 585.42 C 627.91 583.94 627.45 581.05 624.70 580.41 L 625.52 579.86 C 624.87 579.93 623.57 580.07 622.92 580.15 L 623.05 579.14 C 615.89 574.76 603.80 581.82 596.99 575.97 C 596.25 575.99 594.75 576.02 594.00 576.03 L 594.00 575.00 C 593.50 575.00 592.51 575.00 592.01 575.01 C 588.40 572.35 584.69 568.50 581.96 564.99 C 581.98 564.49 582.04 563.50 582.06 563.00 C 579.87 563.36 580.99 558.91 579.00 559.00 C 579.00 558.25 579.00 556.75 579.00 556.00 L 578.03 556.01 C 576.37 541.25 576.37 525.76 578.03 510.99 L 579.00 511.00 C 579.00 510.50 579.00 509.51 579.00 509.01 C 580.46 506.81 582.81 504.45 585.01 503.00 C 585.51 503.00 586.50 503.00 587.00 503.00 L 587.00 502.00 C 589.99 502.00 592.99 502.00 596.00 502.00 L 596.00 501.00 C 596.74 501.00 598.23 501.00 598.98 501.00 C 601.23 498.86 604.37 496.62 606.00 493.50 C 605.98 490.99 605.98 488.49 606.00 486.00 L 605.00 486.00 C 605.00 485.51 605.00 484.51 605.00 484.02 C 603.41 482.54 601.62 480.27 599.34 479.09 C 598.76 479.06 597.59 479.01 597.00 478.99 L 597.00 478.00 C 596.25 478.00 594.74 478.00 593.99 478.00 L 594.00 476.89 C 591.33 476.89 588.66 476.89 586.00 476.90 Z"/>
</g>
<g id="#ffffffff">
<path fill="#ffffff" opacity="1.00" d=" M 447.04 249.93 C 454.01 250.05 460.99 250.04 467.96 249.93 L 468.00 251.03 C 469.66 251.01 471.33 250.98 473.00 250.95 L 472.99 252.03 C 474.32 252.01 475.66 251.98 477.00 251.96 L 476.99 253.03 C 477.74 253.01 479.25 252.99 480.00 252.98 L 480.00 254.04 C 480.75 254.02 482.25 253.97 483.00 253.95 C 482.62 256.14 487.04 255.03 487.00 257.00 C 487.50 257.00 488.50 257.00 489.00 257.00 L 489.00 258.00 C 489.49 258.00 490.49 258.00 490.98 258.00 C 499.09 263.53 506.78 270.96 512.65 279.36 C 517.62 269.81 527.01 263.07 535.02 256.95 C 535.52 256.97 536.51 257.02 537.01 257.04 L 537.00 255.94 C 537.50 255.97 538.51 256.02 539.01 256.04 L 539.00 254.92 C 539.75 254.96 541.25 255.02 542.00 255.06 L 542.00 254.00 C 542.75 254.00 544.25 254.00 545.00 254.00 L 545.00 253.00 C 545.75 253.00 547.25 253.00 548.01 253.00 L 548.00 251.99 C 549.33 252.00 550.66 252.00 552.01 252.01 L 552.00 250.97 C 553.66 250.99 555.32 251.01 557.00 251.02 L 557.04 249.90 C 564.01 250.06 570.98 250.03 577.96 249.94 L 578.00 251.00 C 579.66 251.00 581.33 251.00 583.00 251.00 L 582.99 252.01 C 584.65 252.00 586.32 252.00 588.00 251.99 L 587.99 253.00 C 588.74 253.00 590.25 253.00 591.00 253.00 L 590.99 254.00 C 591.75 254.00 593.25 254.00 594.00 254.00 L 593.99 255.00 C 594.75 255.00 596.25 255.00 597.00 255.00 L 597.00 256.05 C 597.75 256.02 599.25 255.96 600.00 255.92 C 599.81 257.75 602.82 257.41 603.99 258.33 C 605.13 259.70 607.37 260.41 608.96 261.50 C 621.30 268.64 631.19 279.71 639.00 291.02 C 639.00 291.51 639.00 292.51 639.00 293.00 L 640.00 293.00 C 640.00 293.50 640.00 294.49 640.00 294.99 C 641.30 295.63 641.72 297.64 642.91 298.65 C 642.94 299.23 642.99 300.41 643.02 301.00 L 644.00 301.00 C 644.00 301.50 644.00 302.51 644.00 303.01 L 645.06 303.00 C 645.03 303.75 644.98 305.25 644.96 306.00 L 646.03 306.00 C 646.01 306.75 645.99 308.25 645.97 309.00 L 647.04 309.00 C 647.01 310.33 646.98 311.67 646.96 313.01 L 648.01 313.00 C 647.99 314.66 647.99 316.33 647.99 318.01 L 649.01 318.00 C 648.98 319.57 648.98 321.15 648.98 322.74 C 649.68 323.07 651.10 323.74 651.80 324.08 L 652.08 323.36 C 654.00 323.93 655.99 324.10 658.00 324.11 L 658.00 325.05 C 659.66 325.01 661.33 324.97 663.00 324.93 L 662.99 326.05 C 663.74 326.02 665.25 325.96 666.00 325.93 L 665.99 327.01 C 666.49 327.00 667.50 327.00 668.00 327.00 L 668.00 328.00 C 668.75 328.00 670.25 328.00 671.00 328.00 L 670.99 329.00 C 671.50 329.00 672.50 329.00 673.00 329.00 L 673.00 330.00 C 673.50 330.00 674.50 330.00 675.00 330.00 L 674.99 331.00 C 675.49 331.00 676.49 331.00 676.98 331.00 C 687.70 337.71 698.84 348.10 705.00 359.01 C 705.00 359.50 705.00 360.50 705.00 361.00 L 706.00 361.00 C 706.00 361.50 706.00 362.50 706.00 363.01 L 707.00 363.00 C 707.00 363.50 707.00 364.51 707.00 365.01 L 708.00 365.00 C 708.00 365.75 708.00 367.25 708.00 368.00 C 710.35 370.08 710.66 374.72 711.03 378.01 L 712.01 378.00 C 711.99 380.00 711.99 381.99 711.99 384.00 L 713.01 384.04 C 712.99 390.34 712.96 396.65 713.04 402.96 L 712.00 403.00 C 711.99 405.00 711.99 407.00 712.00 409.00 C 712.50 409.00 713.49 409.00 713.99 409.00 L 713.99 410.00 C 714.49 410.00 715.48 410.00 715.98 410.00 C 716.62 411.84 719.55 412.28 721.09 413.59 C 730.85 419.97 738.66 429.00 744.50 439.04 C 745.73 440.56 746.22 443.39 748.02 444.02 C 748.01 444.76 747.99 446.25 747.97 447.00 C 749.94 446.92 748.86 451.33 751.01 451.00 C 751.01 451.75 750.99 453.25 750.98 454.00 L 752.00 454.00 C 752.00 454.75 752.00 456.25 752.00 457.00 L 753.00 457.00 C 753.00 457.75 753.00 459.25 753.00 460.00 L 754.00 460.00 C 753.99 461.33 753.99 462.66 754.00 464.00 L 755.00 464.00 C 754.99 465.33 754.99 466.66 755.00 468.00 L 756.00 468.00 C 755.99 469.66 755.99 471.33 756.00 473.00 L 757.00 473.00 C 756.99 475.33 756.99 477.66 757.00 480.00 L 758.03 480.04 C 757.96 488.04 758.01 496.05 758.00 504.06 L 756.99 503.87 C 757.80 508.76 755.87 513.20 755.96 518.00 L 755.00 518.00 C 754.99 519.66 754.99 521.33 755.00 523.00 L 754.00 522.99 C 754.00 523.75 754.00 525.25 754.00 526.00 L 753.00 526.00 C 753.00 526.75 753.00 528.25 753.00 529.00 L 752.00 529.00 C 752.00 529.75 752.00 531.25 752.00 532.00 L 750.99 532.00 C 751.00 532.75 751.00 534.25 751.00 535.00 L 750.00 535.00 C 750.00 535.50 750.00 536.50 750.00 537.00 L 748.98 537.00 C 748.99 537.75 749.01 539.25 749.01 540.00 L 748.00 540.00 C 748.00 540.50 748.00 541.49 748.00 541.99 C 746.11 543.17 745.24 546.87 743.46 548.93 C 739.70 555.78 734.35 561.51 729.47 567.53 C 728.29 568.44 727.05 569.26 725.90 570.20 C 725.30 574.28 727.26 577.97 727.02 582.00 L 728.03 582.03 C 727.98 588.71 727.97 595.39 728.04 602.07 L 726.97 601.88 C 726.98 604.28 727.00 606.69 727.05 609.09 L 725.97 608.87 C 725.97 610.26 725.98 611.66 726.01 613.06 L 724.95 612.90 C 724.96 614.29 724.99 615.68 725.03 617.09 L 723.69 616.98 C 725.07 619.09 725.48 623.15 721.91 622.94 C 721.94 623.47 722.02 624.54 722.05 625.07 L 720.92 624.92 C 720.96 625.73 721.03 627.34 721.07 628.14 L 719.90 627.90 C 719.95 628.45 720.05 629.56 720.10 630.11 L 718.89 629.89 C 718.95 630.46 719.06 631.58 719.12 632.15 L 717.87 631.85 C 717.95 632.55 718.12 633.95 718.21 634.65 L 717.62 633.68 C 716.09 634.55 715.60 635.67 716.16 637.06 L 714.89 636.94 C 714.95 637.50 715.06 638.61 715.12 639.17 C 707.73 647.62 698.09 657.81 687.98 664.00 C 687.48 664.00 686.49 664.00 686.00 664.00 L 686.00 665.00 C 685.50 665.00 684.50 665.00 684.00 665.00 L 684.00 666.00 C 683.50 665.99 682.50 665.99 682.00 665.99 L 682.00 667.00 C 681.50 667.00 680.50 667.00 680.00 667.00 L 680.00 668.00 C 679.25 668.00 677.75 668.00 677.00 668.00 L 677.00 669.00 C 676.25 669.00 674.75 669.00 674.00 669.00 L 674.00 670.00 C 673.25 670.00 671.75 670.00 671.00 670.00 L 671.00 671.00 C 669.66 670.99 668.32 670.99 667.00 671.00 L 667.00 672.00 C 665.32 671.99 663.66 671.99 662.00 672.00 L 662.00 673.00 C 658.09 673.08 654.18 672.77 650.29 673.09 C 647.51 675.76 649.60 680.48 649.01 684.00 L 648.00 683.99 C 647.99 685.32 647.99 686.66 648.00 688.00 L 647.00 688.00 C 647.00 688.75 647.00 690.25 647.00 691.00 L 646.00 691.00 C 645.99 692.32 645.99 693.66 646.00 695.00 L 645.00 695.00 C 645.00 695.75 645.00 697.25 645.00 698.00 L 643.97 697.99 C 643.99 698.75 644.01 700.25 644.03 701.00 C 642.24 700.86 642.56 703.83 641.66 704.99 C 640.29 706.15 639.57 708.37 638.50 709.96 C 631.75 721.90 619.90 731.27 609.00 738.00 C 608.50 738.00 607.50 738.00 607.00 738.00 C 607.03 739.93 602.68 738.88 603.00 741.00 C 602.25 741.00 600.75 741.00 600.00 741.00 L 600.00 742.00 C 599.25 742.00 597.75 742.00 597.00 742.00 L 597.00 743.00 C 596.25 743.00 594.75 743.00 594.00 743.00 L 594.00 744.00 C 592.66 743.99 591.32 743.99 589.99 744.00 L 590.00 745.00 C 587.66 744.99 585.33 744.99 583.00 745.00 L 582.96 746.00 C 573.53 746.35 564.26 745.74 555.00 744.99 L 555.00 744.00 C 553.66 743.99 552.33 743.99 551.00 744.00 L 551.00 743.00 C 550.25 743.00 548.75 743.00 548.00 743.00 L 548.00 742.01 C 547.42 741.98 546.26 741.92 545.68 741.89 C 544.37 741.50 543.47 740.87 543.00 740.00 C 542.50 740.00 541.50 740.00 541.00 740.00 L 541.00 739.00 C 540.50 739.00 539.50 739.00 539.00 739.00 L 539.00 738.00 C 538.50 738.00 537.50 738.00 537.01 738.00 C 527.90 732.60 518.66 723.66 511.99 715.00 C 505.75 722.79 498.25 731.43 488.97 736.50 C 487.44 737.72 484.61 738.20 483.97 740.00 C 483.23 740.00 481.75 740.00 481.00 740.00 C 480.51 740.87 479.62 741.50 478.32 741.89 C 477.74 741.92 476.58 741.98 476.00 742.01 L 476.00 743.00 C 475.25 743.00 473.75 743.00 473.00 743.00 L 473.00 744.00 C 471.66 743.99 470.33 743.99 469.00 744.00 L 469.00 745.00 C 466.99 744.99 464.99 744.99 463.00 745.00 L 463.00 746.00 C 455.67 745.99 448.33 746.00 441.00 746.00 L 441.00 745.00 C 439.00 744.99 437.00 744.99 435.00 745.00 L 435.00 744.00 C 433.33 743.99 431.66 743.99 430.00 744.00 L 430.00 743.00 C 429.25 743.00 427.75 743.00 427.00 743.00 L 427.00 742.01 C 426.42 741.98 425.25 741.92 424.67 741.89 C 423.36 741.50 422.47 740.87 422.00 740.00 C 421.25 740.00 419.75 740.00 419.00 740.00 L 419.00 739.00 C 418.50 739.00 417.50 739.00 417.00 739.00 L 417.00 738.00 C 416.50 738.00 415.50 738.00 415.00 738.00 L 415.00 737.00 C 414.51 737.00 413.52 737.00 413.02 737.00 C 401.88 729.57 391.18 719.31 384.00 707.98 C 384.00 707.48 384.00 706.49 384.00 705.99 L 383.00 705.99 C 383.00 705.49 383.00 704.50 383.00 704.00 L 382.00 704.00 C 382.00 703.50 382.00 702.50 382.00 702.00 L 381.00 702.00 C 381.00 701.50 381.00 700.50 381.00 700.00 L 380.00 700.00 C 380.00 699.50 380.00 698.50 380.00 698.00 L 378.99 698.00 C 379.00 697.25 379.01 695.75 379.01 695.00 L 378.00 695.00 C 378.00 693.66 378.00 692.32 378.00 690.99 L 377.00 691.00 C 377.00 689.66 377.00 688.32 377.00 687.00 L 376.05 687.00 C 375.82 682.63 374.24 678.49 375.12 673.99 C 369.28 672.21 362.92 673.28 356.96 671.95 L 357.09 670.96 C 355.68 670.97 354.28 670.99 352.88 671.02 L 353.16 670.16 C 350.26 669.51 345.43 669.40 343.97 666.90 C 343.46 666.94 342.44 667.01 341.93 667.05 L 342.10 665.92 C 341.56 665.94 340.48 666.00 339.94 666.02 L 340.09 664.92 C 339.55 664.95 338.47 665.00 337.93 665.02 L 338.11 663.85 C 337.48 663.93 336.22 664.09 335.59 664.17 L 336.33 663.04 C 323.99 657.86 314.48 646.37 307.50 634.96 C 306.26 633.44 305.79 630.58 303.99 629.98 C 303.99 629.24 304.01 627.75 304.02 627.00 C 302.06 627.04 303.12 622.68 301.00 623.00 C 301.00 622.25 301.00 620.75 301.00 620.00 L 300.00 620.00 C 300.00 619.25 300.00 617.75 300.00 617.00 L 299.00 617.00 C 299.00 615.66 299.00 614.32 299.00 613.00 L 298.00 613.00 C 298.00 611.66 298.00 610.32 298.00 609.00 L 297.00 609.00 C 297.00 606.99 297.00 604.99 297.00 603.00 L 295.98 602.97 C 296.02 595.99 296.01 589.01 295.99 582.04 L 297.00 582.00 C 297.00 579.99 297.00 577.99 297.00 576.00 L 298.00 576.01 C 298.00 574.04 298.00 572.09 298.00 570.13 C 290.48 564.99 285.58 556.49 280.50 548.97 C 279.26 547.44 278.79 544.57 276.96 543.97 C 276.98 543.48 277.01 542.49 277.03 542.00 L 275.99 542.00 C 276.00 541.25 276.01 539.75 276.02 539.00 C 274.06 539.05 275.12 534.67 273.00 535.00 C 273.00 534.25 273.00 532.75 273.00 532.00 L 272.00 532.00 C 272.00 531.25 272.00 529.75 272.00 529.00 L 271.00 529.00 C 271.00 528.25 271.00 526.75 271.00 526.00 L 270.00 526.00 C 270.00 525.25 270.00 523.75 270.00 523.00 L 269.00 523.00 C 269.00 521.66 269.00 520.32 269.00 518.99 L 267.99 519.00 C 268.00 516.99 268.00 514.99 268.01 513.00 L 267.00 513.00 C 267.00 510.66 267.00 508.33 267.00 506.00 L 265.99 505.96 C 265.99 496.98 266.05 488.00 265.95 479.02 L 267.00 479.00 C 267.00 476.99 267.00 474.99 267.00 473.00 L 268.02 473.01 C 268.00 471.00 267.99 469.00 267.97 467.00 L 269.01 467.01 C 269.00 465.67 268.99 464.33 268.99 463.00 L 270.03 463.01 C 270.01 461.67 269.98 460.33 269.96 459.00 L 271.00 459.01 C 271.00 458.51 271.00 457.50 271.00 457.00 L 272.00 457.01 C 272.00 456.26 272.00 454.75 272.00 454.00 L 273.00 454.01 C 273.00 453.25 273.00 451.75 273.00 451.00 L 274.00 451.01 C 274.00 450.50 274.00 449.50 274.00 449.00 L 275.03 449.00 C 275.02 448.26 274.98 446.76 274.97 446.02 C 277.04 445.53 277.10 441.71 279.00 440.99 C 279.00 440.50 279.00 439.51 279.00 439.02 C 285.96 429.29 293.85 418.41 305.03 412.50 C 306.54 411.26 309.40 410.79 310.02 409.00 C 310.51 409.00 311.51 409.00 312.00 409.00 C 312.00 406.33 312.00 403.66 312.00 401.00 L 311.00 401.00 C 311.00 396.00 311.00 391.00 311.00 386.00 L 312.01 386.00 C 312.00 383.33 312.00 380.66 311.98 378.00 L 313.02 378.01 C 313.00 376.67 312.99 375.33 312.98 374.00 L 314.00 374.01 C 314.00 373.26 314.00 371.75 314.00 371.00 L 315.00 371.01 C 315.00 370.25 315.00 368.75 315.00 368.00 L 316.02 368.00 C 316.01 367.25 315.99 365.75 315.98 365.00 L 317.00 365.01 C 317.00 364.51 317.00 363.50 317.00 363.00 L 318.00 363.01 C 318.00 362.51 318.00 361.52 318.00 361.02 C 320.06 359.65 320.84 356.04 322.59 353.91 C 328.41 344.14 338.27 337.23 347.02 331.00 C 347.51 331.00 348.51 331.00 349.00 331.00 L 349.00 330.00 C 349.50 330.00 350.50 330.00 351.01 330.00 L 351.00 329.00 C 351.50 329.00 352.51 329.00 353.01 329.00 L 353.00 327.99 C 353.75 328.00 355.25 328.01 356.01 328.01 L 356.00 327.00 C 356.50 327.00 357.51 327.00 358.02 327.00 L 358.00 325.92 C 358.75 325.95 360.26 326.02 361.01 326.05 L 361.00 324.91 C 362.33 324.96 363.67 325.01 365.02 325.06 L 365.00 323.94 C 367.66 324.00 370.33 324.01 373.00 324.02 L 373.00 322.94 C 373.50 322.97 374.51 323.02 375.02 323.04 C 375.01 322.28 374.98 320.76 374.96 320.00 L 376.02 320.01 C 376.00 318.00 376.00 316.00 375.98 314.00 L 377.00 314.01 C 377.00 313.26 377.00 311.75 377.00 311.00 L 378.03 311.01 C 378.01 309.67 377.99 308.33 377.97 307.00 L 379.00 307.01 C 379.00 306.51 379.00 305.50 379.00 305.00 L 380.00 305.01 C 380.00 304.25 380.00 302.75 380.00 302.00 L 381.01 302.01 C 381.00 301.50 381.00 300.50 381.00 300.00 L 382.02 300.00 C 382.01 299.26 381.99 297.77 381.98 297.02 C 384.05 295.62 384.83 292.05 386.60 289.91 C 393.57 278.96 402.92 269.24 414.03 262.50 C 415.54 261.26 418.41 260.80 419.02 259.00 C 419.51 259.00 420.50 259.00 421.00 259.00 C 420.94 257.03 425.35 258.13 425.01 255.95 C 425.75 255.98 427.25 256.02 428.00 256.04 L 428.00 255.00 C 428.75 255.00 430.25 255.00 431.00 255.00 L 431.00 254.00 C 431.75 254.00 433.25 254.00 434.00 254.00 L 434.00 253.00 C 434.75 253.00 436.25 253.00 437.01 253.00 L 437.00 251.96 C 438.33 251.98 439.67 252.01 441.01 252.03 L 441.00 250.96 C 442.99 250.99 444.99 251.00 447.00 251.03 L 447.04 249.93 M 443.99 273.99 L 444.01 274.98 C 443.25 274.99 441.73 275.01 440.98 275.01 L 441.00 275.99 C 440.25 275.99 438.76 275.99 438.01 275.98 C 437.53 276.88 436.64 277.50 435.32 277.86 C 434.86 277.92 433.94 278.05 433.48 278.11 C 432.47 279.20 430.38 279.55 429.97 281.01 C 429.49 281.00 428.52 281.00 428.03 280.99 C 418.31 286.93 409.90 296.34 403.99 306.04 C 403.99 306.53 404.00 307.52 404.00 308.01 L 402.97 307.98 C 402.99 308.74 403.01 310.25 403.02 311.01 L 401.99 310.97 C 401.99 311.48 402.00 312.50 402.01 313.01 L 400.98 312.97 C 400.99 313.73 401.01 315.25 401.02 316.01 L 399.99 315.97 C 399.99 316.73 400.01 318.24 400.01 319.00 L 399.00 318.99 C 399.00 319.50 399.01 320.51 399.01 321.01 L 398.00 320.97 C 398.00 321.67 398.00 323.06 398.00 323.76 C 400.27 324.56 402.57 325.20 405.01 325.03 L 404.96 326.00 C 406.94 325.94 410.45 325.99 411.03 328.10 C 411.80 328.05 413.35 327.95 414.13 327.90 L 413.89 329.12 C 414.45 329.06 415.56 328.94 416.12 328.88 L 415.89 330.12 C 416.45 330.06 417.56 329.94 418.12 329.88 L 417.89 331.12 C 418.45 331.06 419.58 330.94 420.14 330.89 L 419.92 332.00 C 421.68 331.41 422.42 332.82 423.26 334.06 C 430.73 338.44 439.36 346.47 442.92 353.74 C 444.08 354.56 445.65 355.20 444.97 356.96 C 447.09 356.82 445.74 361.40 448.01 361.01 C 448.01 361.51 448.00 362.52 447.99 363.02 L 449.03 362.99 C 449.01 363.75 448.99 365.27 448.97 366.03 L 450.01 365.99 C 450.00 366.75 450.00 368.27 449.99 369.03 L 451.01 368.99 C 451.00 369.74 450.99 371.25 450.98 372.01 L 452.01 372.00 C 452.00 373.67 451.99 375.35 452.00 377.03 L 453.04 376.99 C 453.02 378.66 453.00 380.33 453.00 382.01 L 451.99 381.97 C 451.99 382.72 452.01 384.23 452.02 384.98 C 450.14 386.80 448.30 389.69 445.50 390.98 C 444.87 390.98 443.63 390.99 443.01 390.99 L 442.99 392.00 C 441.32 391.99 439.65 392.00 437.98 392.00 L 438.03 390.99 C 437.28 391.00 435.77 391.01 435.02 391.01 C 432.43 389.67 430.59 385.65 429.00 383.99 C 429.00 382.31 428.99 380.64 429.00 378.96 L 427.99 379.01 C 428.00 378.25 428.00 376.73 428.00 375.97 L 426.98 376.01 C 426.99 375.26 427.01 373.76 427.02 373.01 C 424.99 373.09 426.15 368.60 423.93 369.00 C 423.96 368.50 424.02 367.51 424.05 367.01 C 419.96 360.46 413.26 355.11 406.98 350.99 C 406.48 350.99 405.49 351.00 404.99 351.00 L 405.03 349.98 C 404.27 349.99 402.75 350.01 401.99 350.02 L 402.03 348.99 C 401.52 349.00 400.51 349.00 400.01 349.00 L 400.00 348.00 C 398.66 348.00 397.33 348.00 395.99 348.00 L 396.03 347.03 C 387.49 345.51 378.51 345.50 369.97 347.03 L 370.00 348.01 C 369.25 348.01 367.73 347.99 366.97 347.98 L 367.01 349.01 C 366.25 349.01 364.74 348.99 363.98 348.99 L 364.01 350.01 C 363.26 350.00 361.76 350.00 361.02 349.99 C 353.09 355.02 344.80 361.84 339.99 370.02 C 340.00 370.52 340.00 371.51 340.00 372.01 L 338.99 371.97 C 338.99 372.48 339.00 373.49 339.00 373.99 L 338.21 374.00 C 337.36 375.45 337.78 378.73 336.04 378.99 C 334.77 387.56 334.35 396.48 336.01 405.03 L 337.01 404.99 C 337.00 405.74 337.00 407.24 336.99 407.99 C 338.96 407.94 337.88 412.29 340.01 412.00 C 340.00 412.50 340.00 413.49 339.99 413.98 C 343.27 419.39 348.62 424.73 354.02 428.01 C 354.52 428.01 355.50 427.99 356.00 427.99 C 355.68 430.12 360.08 429.02 360.00 431.01 C 360.76 431.01 362.26 430.99 363.01 430.99 L 362.97 431.97 C 371.66 433.89 380.89 431.86 389.54 434.07 C 391.74 435.66 393.06 438.53 395.01 440.02 C 394.99 443.00 395.01 445.99 395.00 448.98 C 392.35 451.49 389.59 456.61 385.01 455.99 L 384.98 457.00 C 378.99 457.00 372.99 457.00 367.00 457.00 L 367.00 456.00 C 364.35 456.00 361.69 455.99 359.04 456.01 L 358.99 455.00 C 358.24 455.00 356.75 455.00 356.00 455.00 L 356.01 454.01 C 354.89 453.97 353.78 453.94 352.67 453.91 C 351.38 453.52 350.48 452.88 349.99 451.99 C 349.24 452.00 347.74 452.00 346.99 452.00 L 347.02 450.99 C 346.51 451.00 345.50 451.00 344.99 451.00 L 345.02 449.99 C 344.52 450.00 343.53 450.00 343.03 450.00 C 334.64 444.43 326.45 437.53 320.57 428.85 C 312.34 435.43 304.41 443.23 298.99 452.02 C 298.99 452.52 299.00 453.50 299.00 454.00 C 296.86 453.67 297.96 458.07 295.98 458.01 C 295.99 458.76 296.01 460.26 296.02 461.01 L 294.99 460.98 C 294.99 461.48 295.00 462.48 295.00 462.98 L 293.99 463.01 C 294.00 463.76 294.01 465.26 294.01 466.01 L 292.93 465.99 C 292.95 466.75 292.99 468.26 293.01 469.02 L 292.00 468.97 C 292.00 470.31 292.00 471.65 292.00 473.00 L 291.01 472.99 C 289.59 485.90 289.61 499.13 291.01 512.03 L 292.01 511.99 C 292.00 513.34 292.00 514.69 292.00 516.05 L 293.00 515.99 C 293.00 516.75 293.00 518.27 293.00 519.03 L 294.02 518.99 C 294.01 519.75 293.99 521.27 293.98 522.03 L 295.05 521.99 C 295.02 522.75 294.98 524.27 294.96 525.03 L 296.02 524.99 C 296.01 525.74 295.99 527.25 295.98 528.00 C 298.14 528.66 297.67 533.51 300.00 534.01 C 300.00 534.51 299.99 535.49 299.99 535.98 C 302.85 539.56 305.53 544.07 308.40 547.96 C 308.98 547.98 310.15 548.01 310.73 548.03 C 316.25 539.52 325.27 533.35 333.01 528.00 C 333.52 528.00 334.52 528.01 335.03 528.01 L 334.99 527.00 C 335.50 527.00 336.52 527.01 337.03 527.01 L 336.99 525.99 C 337.50 525.99 338.52 526.01 339.03 526.01 L 338.99 524.98 C 339.75 524.99 341.27 525.01 342.02 525.02 L 341.99 523.99 C 342.75 523.99 344.28 524.00 345.04 524.01 L 344.99 522.99 C 345.75 522.99 347.27 523.01 348.03 523.02 L 347.99 521.97 C 349.98 521.98 351.98 522.00 353.99 522.02 L 354.07 520.96 C 361.06 521.22 368.20 520.31 374.97 522.06 C 376.69 523.29 378.63 525.48 380.01 527.02 C 380.00 527.52 379.99 528.52 379.99 529.02 L 381.01 528.99 C 381.00 531.65 380.99 534.31 381.02 536.98 C 378.87 538.91 376.99 541.93 374.52 543.91 C 366.41 546.11 357.64 543.81 349.65 547.26 L 350.45 548.15 C 349.57 548.08 347.80 547.95 346.91 547.88 L 347.07 549.05 C 346.54 549.01 345.48 548.94 344.95 548.91 L 345.05 550.17 C 343.68 549.60 342.57 550.08 341.71 551.60 L 342.56 552.33 C 340.96 551.53 339.69 551.95 338.73 553.60 L 339.55 554.25 C 335.24 554.15 331.21 560.17 328.88 563.48 C 327.70 564.59 326.77 565.89 326.83 567.61 L 326.72 566.60 C 325.84 567.89 325.00 569.22 324.09 570.50 C 323.94 572.04 323.42 574.35 322.13 574.98 C 321.47 577.29 321.02 579.65 320.89 582.06 L 320.00 581.89 C 320.16 591.32 319.08 600.95 322.24 610.00 L 323.01 610.01 C 323.00 610.76 323.00 612.27 322.99 613.02 L 324.01 612.99 C 324.01 613.75 324.00 615.26 323.99 616.01 L 325.00 615.99 C 325.00 616.49 325.00 617.49 324.99 617.99 C 326.65 618.87 327.12 621.61 328.51 623.06 C 332.86 631.45 339.90 638.04 348.10 642.57 C 349.23 643.33 350.37 644.08 351.48 644.89 C 353.06 645.05 355.50 645.50 356.02 647.02 C 356.77 647.01 358.26 646.99 359.01 646.98 L 358.97 648.02 C 360.31 648.00 361.66 647.98 363.00 647.96 L 362.97 648.98 C 371.01 650.20 378.99 650.17 387.04 648.99 L 386.98 647.99 C 387.75 647.99 389.27 648.01 390.03 648.01 L 389.99 646.98 C 390.74 646.99 392.24 647.01 392.98 647.02 C 400.71 643.76 407.50 635.30 414.00 630.96 C 416.10 631.00 418.21 631.01 420.32 631.08 C 421.29 631.52 422.21 632.03 423.07 632.62 C 425.79 633.71 427.45 636.16 429.00 638.52 C 428.72 642.09 429.94 646.10 427.40 649.08 C 423.40 656.49 414.72 659.95 408.98 665.01 C 408.48 665.00 407.47 664.99 406.97 664.98 L 407.01 666.00 C 406.51 666.00 405.51 665.99 405.01 665.99 L 404.97 667.00 C 404.48 667.00 403.50 666.99 403.01 666.99 L 402.99 667.66 C 401.31 668.09 399.65 668.54 398.00 669.03 C 397.36 673.15 398.77 677.00 399.02 681.02 L 400.04 680.99 C 400.01 682.32 399.99 683.65 399.98 684.99 L 401.00 685.03 C 401.00 686.18 401.00 687.33 401.00 688.49 C 401.36 689.61 401.92 690.45 402.65 691.01 C 403.15 692.33 403.66 693.65 404.16 694.99 C 408.92 703.67 416.76 711.00 425.03 716.01 C 425.52 716.01 426.50 716.00 426.99 716.00 C 427.50 718.30 432.32 717.87 432.99 720.01 C 433.75 720.00 435.26 720.00 436.01 719.99 L 435.96 721.00 C 437.31 720.99 438.65 720.99 440.01 721.00 L 439.97 721.98 C 447.64 722.72 455.40 723.87 463.04 721.97 L 462.99 720.96 C 464.33 720.97 465.68 721.00 467.04 721.03 L 466.99 719.99 C 467.74 720.00 469.24 720.00 469.99 720.01 C 479.82 715.13 489.48 706.74 495.01 696.98 C 495.01 696.48 495.00 695.49 495.00 694.99 L 496.02 695.03 C 496.01 694.27 495.99 692.75 495.98 691.99 L 497.02 692.01 C 497.01 691.26 496.99 689.76 496.98 689.01 L 497.96 689.00 C 498.01 688.43 498.13 687.31 498.18 686.74 C 499.25 683.96 499.56 680.92 500.03 678.00 C 499.85 556.10 500.22 434.19 499.85 312.30 C 496.46 311.51 499.59 307.13 499.22 304.87 L 497.90 305.13 C 497.95 303.70 498.01 302.29 498.07 300.87 L 496.86 301.15 C 496.92 300.58 497.06 299.45 497.12 298.88 L 495.79 299.19 C 495.88 298.37 496.05 296.74 496.13 295.92 L 494.86 296.09 C 495.83 294.30 494.25 293.57 492.96 292.73 C 493.70 291.10 492.01 290.57 490.99 289.75 C 489.40 284.61 482.81 281.59 478.97 277.98 C 478.48 277.99 477.49 278.01 476.99 278.02 L 477.02 276.98 C 476.51 276.99 475.50 277.00 474.99 277.01 L 475.03 275.99 C 474.28 276.00 472.76 276.01 472.01 276.01 L 471.99 275.24 C 462.93 271.54 453.30 273.40 443.99 273.99 M 552.00 275.24 L 551.99 276.00 C 551.49 276.00 550.48 275.99 549.98 275.99 L 550.01 277.03 C 549.27 277.01 547.77 276.99 547.03 276.97 C 539.87 281.22 533.10 287.42 529.18 295.01 C 528.32 296.16 528.55 298.86 526.99 299.01 C 527.00 299.76 527.01 301.26 527.01 302.00 L 526.02 301.96 C 522.61 314.74 526.96 327.88 523.88 340.69 C 524.12 392.51 524.00 444.35 523.87 496.16 C 523.36 500.21 525.59 503.95 525.13 508.00 C 524.46 543.63 526.36 579.53 523.95 614.97 C 524.91 639.42 521.98 664.10 526.02 688.02 L 527.03 688.00 C 527.00 689.32 526.99 690.65 526.98 691.99 C 529.14 692.71 528.68 697.48 531.00 698.01 C 531.00 698.50 531.00 699.48 530.99 699.98 C 535.37 705.78 540.17 712.30 547.03 715.67 C 548.56 716.87 551.14 717.40 552.02 719.01 C 552.77 719.01 554.26 718.99 555.01 718.99 L 554.97 720.02 C 555.48 720.01 556.50 720.00 557.01 720.00 L 556.97 721.02 C 558.31 721.00 559.65 720.99 561.01 720.99 L 560.96 721.98 C 568.59 723.08 576.43 723.65 584.03 721.96 L 584.00 720.95 C 585.33 720.97 586.68 721.00 588.03 721.04 L 587.99 719.98 C 588.75 719.99 590.27 720.01 591.03 720.02 L 590.99 718.98 C 591.74 718.99 593.24 719.01 593.99 719.02 C 594.12 717.44 596.83 717.68 597.99 716.84 C 607.31 711.53 615.42 702.95 621.02 693.98 C 621.01 693.23 620.99 691.74 620.98 690.99 L 622.01 691.03 C 622.00 690.52 622.00 689.51 622.00 689.01 L 622.83 689.01 C 623.25 686.73 623.93 684.54 624.94 682.46 C 624.85 677.94 626.71 673.71 625.99 669.13 C 623.66 668.30 621.33 667.49 619.01 666.68 C 618.44 665.57 616.45 664.84 615.07 664.99 L 614.99 663.99 C 614.50 664.00 613.52 664.00 613.03 664.00 C 606.96 658.95 598.48 654.44 595.08 646.39 C 595.00 643.92 594.97 641.45 595.00 638.99 L 596.01 639.00 C 596.00 638.34 595.98 637.03 595.97 636.37 C 597.80 633.94 601.65 632.78 603.00 631.00 C 605.33 631.00 607.66 630.98 610.00 631.00 C 614.64 633.39 618.83 639.45 623.92 642.56 C 625.43 643.86 628.10 644.36 629.02 646.01 C 629.51 646.01 630.47 646.00 630.95 646.00 L 631.01 647.02 C 631.76 647.01 633.26 646.99 634.01 646.98 L 633.97 648.02 C 634.73 648.01 636.25 648.00 637.01 647.99 L 636.97 649.00 C 645.38 649.88 653.65 650.40 662.04 648.99 L 661.99 647.99 C 662.75 647.99 664.27 648.01 665.03 648.02 L 664.99 646.97 C 666.33 646.98 667.68 647.00 669.04 647.02 L 668.99 646.00 C 669.50 646.00 670.52 646.01 671.03 646.02 L 670.99 645.00 C 671.49 645.00 672.47 645.01 672.97 645.01 C 673.88 643.38 676.52 642.82 678.09 641.56 C 686.23 637.09 692.04 629.14 697.01 621.98 C 697.01 621.49 697.00 620.50 697.00 620.01 C 699.31 619.48 698.86 614.72 701.01 613.99 C 701.00 613.24 700.99 611.74 700.99 610.99 L 702.01 611.02 C 702.00 610.27 702.00 608.76 701.99 608.00 L 703.01 608.01 C 703.00 606.00 702.99 603.99 702.99 601.99 L 703.98 602.04 C 704.87 595.85 705.59 589.75 703.84 583.58 C 702.93 581.84 703.00 579.87 702.95 577.98 L 701.99 578.00 C 702.00 577.25 702.00 575.76 702.01 575.01 L 701.01 574.97 C 701.01 574.36 700.99 573.13 700.99 572.51 C 700.59 571.51 700.10 570.66 699.51 569.97 C 695.18 560.89 687.00 554.13 678.98 549.00 C 678.49 549.00 677.51 549.00 677.01 549.00 L 677.02 547.99 C 676.26 547.99 674.75 548.01 673.99 548.01 L 674.02 547.00 C 673.27 547.00 671.76 547.00 671.01 547.01 C 665.69 542.77 656.21 546.65 649.44 543.95 C 647.41 541.99 645.58 539.83 644.01 537.50 C 644.01 536.88 644.01 535.63 644.01 535.01 L 643.00 534.96 C 642.99 533.30 642.99 531.64 642.99 529.99 L 644.00 530.01 C 644.00 529.38 644.01 528.11 644.02 527.48 C 646.35 525.13 648.73 522.81 651.51 520.99 C 657.32 521.01 663.13 521.01 668.95 520.98 L 669.02 522.00 C 671.01 521.99 673.00 521.99 675.01 522.00 L 674.97 523.01 C 676.31 523.00 677.67 522.99 679.03 522.99 L 678.96 524.02 C 679.72 524.01 681.25 523.99 682.01 523.98 L 681.97 525.02 C 682.73 525.01 684.25 524.99 685.01 524.98 L 684.98 526.01 C 685.48 526.01 686.48 526.00 686.99 526.00 C 687.05 527.49 689.55 528.04 690.94 528.03 C 691.70 529.84 694.52 530.29 696.09 531.59 C 703.36 536.15 709.38 542.45 714.47 549.29 C 718.26 545.40 720.58 539.82 724.01 535.99 C 724.00 535.49 723.99 534.50 723.99 534.00 C 726.11 534.30 725.03 529.98 726.97 529.99 C 727.16 528.61 727.66 526.34 729.01 525.99 C 729.00 525.24 728.99 523.74 728.99 522.99 L 730.00 523.03 C 730.00 522.27 730.00 520.75 730.00 519.99 L 731.00 520.03 C 730.99 518.68 730.99 517.33 730.99 515.99 L 732.03 516.03 C 732.00 514.68 731.99 513.33 731.98 511.99 L 733.01 512.03 C 732.96 510.01 733.01 508.00 732.99 505.99 L 734.00 506.02 C 734.58 496.80 734.91 488.18 734.02 478.99 L 733.00 478.99 C 732.99 476.98 732.99 474.98 733.01 472.98 L 732.00 473.00 C 731.99 471.65 731.99 470.31 732.00 468.98 L 730.99 469.01 C 730.99 468.25 731.01 466.73 731.01 465.96 L 729.99 466.01 C 730.00 465.25 730.00 463.72 730.01 462.96 L 728.98 463.01 C 728.99 462.25 729.01 460.74 729.02 459.98 L 727.99 460.01 C 728.00 459.50 728.01 458.48 728.01 457.97 L 727.00 458.01 C 727.00 457.50 727.01 456.49 727.01 455.98 L 725.99 456.01 C 726.00 455.50 726.01 454.48 726.01 453.97 L 725.00 454.01 C 725.00 453.51 725.01 452.52 725.01 452.03 C 719.42 443.40 711.85 435.09 703.28 428.89 C 698.49 435.76 692.58 441.63 685.75 446.46 L 686.46 447.24 C 684.23 446.14 682.77 448.71 680.93 449.47 C 681.03 449.65 681.24 450.01 681.34 450.19 C 680.73 450.11 679.51 449.93 678.90 449.85 L 679.09 451.05 C 678.34 451.02 676.82 450.97 676.06 450.94 C 675.83 452.73 672.66 452.27 671.57 453.41 L 673.14 454.23 C 672.75 454.22 671.96 454.20 671.57 454.19 L 671.96 455.71 C 671.33 454.04 669.99 453.41 667.96 453.83 L 668.03 455.02 C 666.65 454.99 665.28 454.98 663.93 454.98 L 664.03 456.01 C 661.31 455.99 658.59 456.01 655.88 455.99 L 656.06 457.01 C 650.54 456.92 645.02 457.18 639.51 456.85 C 635.72 455.79 632.66 453.39 630.00 450.55 C 630.01 449.91 630.01 448.65 630.01 448.01 L 628.99 447.98 C 629.00 445.87 629.01 443.76 629.07 441.66 C 630.36 438.57 632.51 435.76 635.06 434.05 C 643.48 431.60 652.57 434.25 661.03 431.96 L 661.00 430.98 C 661.76 430.99 663.27 431.01 664.02 431.02 L 663.99 429.98 C 664.74 429.99 666.23 430.01 666.98 430.03 C 667.84 428.36 670.56 427.85 672.09 426.55 C 676.25 423.93 679.93 420.25 682.55 416.09 C 683.84 414.55 684.36 411.91 686.01 410.98 C 686.00 410.23 685.99 408.73 685.99 407.99 L 687.01 408.03 C 687.01 407.53 687.00 406.51 687.00 406.01 C 691.08 398.90 688.53 387.54 687.97 378.97 L 686.99 379.02 C 687.00 378.27 687.00 376.76 687.01 376.01 C 685.09 375.12 685.09 371.42 683.50 369.96 C 681.91 366.25 678.95 363.58 676.60 360.40 C 673.39 358.52 671.51 355.01 668.09 353.45 C 666.56 352.15 663.92 351.63 662.99 350.01 C 662.41 349.98 661.25 349.92 660.67 349.88 C 659.35 349.50 658.46 348.88 658.01 348.00 C 656.66 348.00 655.33 348.00 654.00 348.00 L 654.02 347.02 C 645.14 345.32 635.87 345.77 626.97 347.03 L 627.00 348.01 C 626.24 348.00 624.72 348.00 623.97 347.99 L 624.01 349.01 C 623.26 349.01 621.76 348.99 621.01 348.99 C 620.86 350.55 618.15 350.31 617.01 351.16 C 610.26 354.95 604.14 360.50 599.99 367.03 C 600.00 367.52 600.00 368.49 600.01 368.98 C 597.69 369.52 598.13 374.31 595.98 375.00 C 595.98 376.33 596.00 377.66 596.01 379.00 L 595.01 378.98 C 594.97 380.45 594.97 381.94 594.95 383.43 C 593.80 385.12 592.68 386.82 591.55 388.52 C 590.47 389.30 589.39 390.08 588.36 390.91 C 587.77 390.94 586.60 390.99 586.01 391.01 L 585.97 392.00 C 583.98 392.00 581.99 391.99 580.01 392.01 C 574.71 389.47 570.31 383.35 571.07 376.99 L 572.00 377.02 C 571.99 375.68 571.99 374.33 571.99 372.99 L 573.01 373.04 C 572.99 371.69 572.99 370.34 572.99 369.00 L 574.01 369.01 C 574.00 368.25 573.98 366.74 573.97 365.99 L 575.01 366.03 C 575.01 365.52 575.00 364.51 575.00 364.01 L 576.02 364.00 C 576.01 363.26 575.99 361.76 575.98 361.02 C 578.04 359.65 578.84 356.05 580.58 353.91 C 586.65 343.71 596.86 336.42 606.02 329.98 C 606.52 329.99 607.52 330.00 608.02 330.01 L 607.99 328.98 C 608.74 328.99 610.24 329.01 610.99 329.02 C 611.21 327.19 614.53 327.65 616.00 326.79 L 616.01 325.99 C 616.76 326.00 618.27 326.00 619.03 326.01 L 618.99 325.00 C 622.77 325.74 627.39 324.94 626.14 319.98 L 624.99 320.01 C 624.99 319.25 625.01 317.73 625.01 316.98 L 623.99 317.01 C 624.00 316.50 624.01 315.48 624.02 314.97 L 622.98 315.01 C 622.99 314.25 623.01 312.73 623.03 311.97 L 622.00 312.01 C 622.00 311.25 622.00 309.73 622.00 308.97 L 621.00 309.01 C 621.00 308.51 621.01 307.52 621.01 307.02 C 615.00 297.91 608.00 288.20 598.09 282.44 C 596.55 281.15 593.88 280.63 592.97 278.99 C 592.49 278.99 591.51 279.00 591.03 279.00 L 590.99 277.98 C 590.50 277.99 589.51 278.00 589.01 278.01 L 588.99 277.24 C 587.01 276.67 585.10 275.88 583.02 275.94 L 583.01 275.00 C 582.26 275.00 580.75 275.01 580.00 275.01 L 580.00 274.03 C 570.71 272.90 561.07 272.02 552.00 275.24 Z"/>
<path fill="#ffffff" opacity="1.00" d=" M 426.69 478.07 C 432.45 477.96 438.20 478.02 443.96 478.00 L 444.01 478.99 C 444.58 479.02 445.74 479.08 446.32 479.11 C 447.62 479.48 448.52 480.11 449.00 481.01 C 449.50 481.00 450.48 481.00 450.98 481.00 C 456.85 484.70 462.61 491.10 466.00 497.02 C 466.00 497.51 466.00 498.51 466.00 499.00 L 467.00 499.00 C 467.00 499.75 467.00 501.26 467.00 502.01 L 468.00 502.00 C 468.00 502.75 468.00 504.25 468.00 505.00 L 468.98 505.00 C 470.65 523.73 470.42 543.24 469.00 562.00 L 468.00 562.00 C 468.00 562.75 468.00 564.25 468.00 565.00 L 467.01 565.00 C 466.97 566.11 466.94 567.22 466.91 568.34 C 466.51 569.63 465.88 570.51 465.00 571.01 C 465.00 571.50 465.00 572.50 465.00 573.00 L 464.00 573.00 C 464.00 573.50 464.00 574.49 464.00 574.98 C 459.22 583.77 450.54 592.29 441.99 597.00 C 441.50 597.00 440.50 597.00 440.01 597.00 C 439.51 597.88 438.62 598.51 437.32 598.89 C 436.74 598.92 435.58 598.98 435.00 599.01 L 435.00 600.00 C 434.25 600.00 432.75 600.00 432.00 600.00 L 432.00 600.93 C 430.28 601.01 428.56 600.96 426.85 601.11 C 427.23 603.72 424.58 602.37 423.19 602.18 C 415.48 601.45 407.53 602.92 400.03 600.94 C 398.29 599.70 396.38 597.49 395.00 595.98 C 395.00 595.48 395.00 594.49 395.00 594.00 L 394.00 594.00 C 393.99 591.52 394.02 589.05 394.04 586.58 C 395.18 584.88 396.31 583.17 397.45 581.48 C 398.52 580.67 399.62 579.88 400.67 579.04 C 401.50 579.04 403.17 579.02 404.00 579.01 L 404.00 577.97 C 412.03 577.88 420.15 578.60 428.00 576.97 C 428.13 575.31 431.23 575.81 432.08 574.56 C 437.20 571.68 440.82 566.32 444.01 561.99 C 444.00 561.49 444.00 560.50 444.00 560.00 L 445.00 560.00 C 445.00 559.25 445.00 557.75 445.00 557.00 L 445.98 557.01 C 447.33 541.92 448.00 526.07 445.86 510.98 C 444.63 507.41 440.22 503.52 437.00 502.00 C 434.00 501.99 431.00 501.99 428.00 502.00 L 428.00 501.00 C 427.26 501.00 425.77 501.00 425.02 501.00 C 423.53 499.04 420.64 497.70 419.01 495.52 C 419.01 494.89 419.00 493.63 419.00 493.00 L 418.01 493.00 C 418.00 490.66 418.00 488.34 417.98 486.01 C 420.12 484.67 420.43 480.18 423.93 479.62 C 424.79 479.04 425.71 478.52 426.69 478.07 Z"/>
<path fill="#ffffff" opacity="1.00" d=" M 586.00 476.90 C 588.66 476.89 591.33 476.89 594.00 476.89 L 593.99 478.00 C 594.74 478.00 596.25 478.00 597.00 478.00 L 597.00 478.99 C 597.59 479.01 598.76 479.06 599.34 479.09 C 601.62 480.27 603.41 482.54 605.00 484.02 C 605.00 484.51 605.00 485.51 605.00 486.00 L 606.00 486.00 C 605.98 488.49 605.98 490.99 606.00 493.50 C 604.37 496.62 601.23 498.86 598.98 501.00 C 598.23 501.00 596.74 501.00 596.00 501.00 L 596.00 502.00 C 592.99 502.00 589.99 502.00 587.00 502.00 L 587.00 503.00 C 586.50 503.00 585.51 503.00 585.01 503.00 C 582.81 504.45 580.46 506.81 579.00 509.01 C 579.00 509.51 579.00 510.50 579.00 511.00 L 578.03 510.99 C 576.37 525.76 576.37 541.25 578.03 556.01 L 579.00 556.00 C 579.00 556.75 579.00 558.25 579.00 559.00 C 580.99 558.91 579.87 563.36 582.06 563.00 C 582.04 563.50 581.98 564.49 581.96 564.99 C 584.69 568.50 588.40 572.35 592.01 575.01 C 592.51 575.00 593.50 575.00 594.00 575.00 L 594.00 576.03 C 594.75 576.02 596.25 575.99 596.99 575.97 C 603.80 581.82 615.89 574.76 623.05 579.14 L 622.92 580.15 C 623.57 580.07 624.87 579.93 625.52 579.86 L 624.70 580.41 C 627.45 581.05 627.91 583.94 629.98 585.42 C 630.00 588.59 629.99 591.76 630.00 594.94 C 628.41 597.03 625.92 599.35 623.98 601.00 C 623.48 601.00 622.50 601.00 622.00 601.00 L 621.96 602.00 C 612.25 601.96 602.49 602.42 593.00 600.96 L 593.00 600.00 C 591.66 599.99 590.33 599.99 589.00 600.00 L 589.00 599.00 C 588.50 599.00 587.50 599.00 587.00 599.00 L 587.00 598.00 C 586.25 598.00 584.75 598.00 584.00 598.00 L 584.00 597.00 C 583.50 597.00 582.50 597.00 582.01 597.00 C 574.64 592.33 566.17 584.55 561.00 576.98 C 561.00 576.49 561.00 575.49 561.00 575.00 L 560.00 575.00 C 560.00 574.50 560.00 573.50 560.01 573.00 L 559.00 573.00 C 559.00 572.25 559.00 570.75 559.00 570.01 C 558.11 569.51 557.48 568.61 557.11 567.32 C 557.08 566.74 557.02 565.58 556.99 565.00 L 556.00 564.99 C 555.99 563.66 555.99 562.32 556.00 561.00 L 555.07 561.00 C 553.05 544.79 554.44 528.30 553.94 511.94 L 555.01 512.09 C 554.99 510.06 555.00 508.05 554.99 506.04 L 556.01 506.00 C 556.00 504.66 555.99 503.33 555.99 502.00 L 557.00 502.01 C 557.00 501.51 557.00 500.50 557.00 500.00 L 558.01 500.00 C 558.01 499.26 558.00 497.76 557.99 497.02 C 562.19 490.60 568.09 483.44 575.02 480.00 C 575.51 480.00 576.51 480.00 577.01 480.00 L 577.00 479.00 C 578.33 478.99 579.66 479.00 581.01 479.01 L 581.00 478.00 C 582.66 477.99 584.33 477.99 586.01 478.00 L 586.00 476.90 Z"/>
</g>
</svg>